<svg version="1" xmlns="http://www.w3.org/2000/svg" width="853.333" height="853.333" viewBox="0 0 640.000000 640.000000"><path d="M318 1.5c-.7.8-1.6 1.5-2.1 1.5-.7 0-11 5.8-31.9 18-3.6 2.1-16.8 9.8-29.5 17-12.6 7.3-24.1 13.9-25.5 14.8-1.4.9-2.7 1.5-3 1.5-.3 0-1.6.7-3 1.7-1.4.9-8.6 5.2-16 9.5s-15.7 9.1-18.5 10.7c-2.7 1.6-5.8 3.2-6.7 3.5-1 .3-1.8.9-1.8 1.4 0 .5-.6.9-1.3.9-.7 0-2.8 1.1-4.7 2.3-1.9 1.3-5.5 3.5-8 4.9-7.9 4.4-65.6 37.6-80.7 46.4-4.4 2.6-25.3 14.6-27.8 15.9-1.1.6-3.8 2.2-6 3.6-2.3 1.3-5 2.9-6 3.5-2 1.1-2 3.3-2.3 161.2L43 479.9l6.2 3.7c3.5 2 7.9 4.6 9.8 5.7 1.9 1 10.7 6.1 19.5 11.2 20.8 12 56 32.3 60.5 34.8 5.3 2.9 32.3 18.6 34 19.7 1.6 1 8.4 4.9 16.5 9.5 2.8 1.5 9.1 5.1 14 8 5 2.9 10.8 6.3 13 7.5 2.2 1.3 6 3.4 8.5 4.8s7.3 4.3 10.8 6.4c3.4 2.1 6.4 3.8 6.6 3.8.2 0 8.1 4.6 17.7 10.1 9.6 5.6 19.9 11.5 22.9 13.2 3 1.6 6 3.3 6.5 3.7 1.4 1.1 18.7 11 19.1 11 .2 0 2.8 1.6 5.9 3.5l5.5 3.5 4.7-2.5c2.7-1.5 6.2-3.4 7.8-4.4 1.7-1 10.2-5.9 19-10.9s16.5-9.6 17.2-10.2c.7-.5 1.4-1 1.7-1 .2 0 3.9-2 8-4.5 4.2-2.5 7.9-4.5 8.2-4.5.3 0 3-1.6 6-3.5s5.9-3.5 6.4-3.5c.6 0 1-.5 1-1 0-.6.5-1 1.2-1 .6 0 5.4-2.5 10.7-5.6 5.3-3.1 12.1-7.1 15.1-8.9 3-1.7 13.6-7.8 23.5-13.5s27.7-15.9 39.5-22.8 23.5-13.6 26-15c2.5-1.4 5.9-3.3 7.5-4.3 1.7-1 5.3-3 8-4.4 2.8-1.5 5.7-3.3 6.6-4.1.8-.8 1.8-1.4 2.2-1.4.3 0 7.2-3.8 15.2-8.5 8.1-4.7 15-8.5 15.5-8.5s1-.3 1.2-.8c.2-.4 1.7-1.4 3.3-2.3 1.7-.9 7.4-4.2 12.8-7.3l9.7-5.7V160.1l-6.2-3.7c-3.5-2-7.6-4.4-9.3-5.4-32.7-18.7-51.2-29.4-52-30-.5-.4-3.1-1.9-5.7-3.4C514 111.7 490.2 98.1 487 96c-.8-.5-3.7-2.2-6.5-3.8-2.7-1.6-6.8-3.9-9-5.2-2.2-1.2-6-3.4-8.5-4.8-2.5-1.3-4.9-2.8-5.5-3.2-.8-.6-36.4-21.1-52-30-15.6-8.9-42.3-24.2-43.5-25-.8-.5-4.9-2.9-9-5.2-4.1-2.4-8.3-4.7-9.2-5.3-7-4.2-23.6-13.5-24-13.5-.3 0-1.1.7-1.8 1.5z"/></svg>