<?xml version="1.0" standalone="no"?>
<!DOCTYPE svg PUBLIC "-//W3C//DTD SVG 20010904//EN"
 "http://www.w3.org/TR/2001/REC-SVG-20010904/DTD/svg10.dtd">
<svg version="1.0" xmlns="http://www.w3.org/2000/svg"
 width="300.000000pt" height="300.000000pt" viewBox="0 0 300.000000 300.000000"
 preserveAspectRatio="xMidYMid meet">
<metadata>
Created by potrace 1.11, written by Peter Selinger 2001-2013
</metadata>
<g transform="translate(0.000000,300.000000) scale(0.100000,-0.100000)"
fill="#000000" stroke="none">
<path d="M923 2484 l-573 -326 0 -658 0 -658 567 -323 c313 -178 575 -323 583
-323 8 0 270 145 583 323 l567 323 0 658 0 658 -563 321 c-310 176 -570 323
-578 326 -8 3 -272 -142 -586 -321z m327 -244 l0 -40 -225 0 -225 0 0 -120 0
-120 210 0 210 0 0 -40 0 -40 -210 0 -210 0 0 -130 0 -130 179 0 178 0 22 59
c24 66 79 129 138 159 153 78 346 31 414 -100 26 -51 25 -56 -18 -67 -32 -9
-40 -8 -50 6 -7 9 -13 22 -13 28 0 16 -47 63 -81 81 -41 21 -148 20 -193 -1
-49 -23 -104 -87 -112 -130 -3 -19 -10 -38 -15 -41 -14 -8 -10 -143 5 -203 32
-117 104 -173 222 -173 93 -1 117 16 238 172 70 90 127 115 261 115 83 0 108
-4 150 -23 80 -37 123 -90 138 -169 l7 -33 -49 0 c-47 0 -48 1 -60 39 -6 22
-25 51 -41 65 -55 46 -190 56 -262 20 -64 -33 -87 -107 -48 -156 24 -32 44
-40 208 -83 166 -44 214 -72 253 -147 58 -114 -20 -258 -161 -300 -60 -17
-191 -14 -261 6 -94 28 -165 106 -182 202 -6 29 -3 32 25 38 57 11 65 8 72
-29 15 -77 98 -135 206 -143 114 -8 196 31 220 103 10 30 9 41 -7 72 -24 50
-60 69 -209 108 -180 49 -208 64 -271 154 -2 3 -13 -5 -26 -17 -12 -11 -45
-31 -72 -44 -71 -32 -198 -32 -273 1 -99 44 -161 147 -178 294 l-7 57 -218 0
-219 0 0 370 0 370 270 0 270 0 0 -40z"/>
</g>
</svg>
