<?xml version="1.0" standalone="no"?>
<!DOCTYPE svg PUBLIC "-//W3C//DTD SVG 20010904//EN"
 "http://www.w3.org/TR/2001/REC-SVG-20010904/DTD/svg10.dtd">
<svg version="1.0" xmlns="http://www.w3.org/2000/svg"
 width="300.000000pt" height="300.000000pt" viewBox="0 0 300.000000 300.000000"
 preserveAspectRatio="xMidYMid meet">
<metadata>
Created by potrace 1.11, written by Peter Selinger 2001-2013
</metadata>
<g transform="translate(0.000000,300.000000) scale(0.100000,-0.100000)"
fill="#000000" stroke="none">
<path d="M1475 2793 c-16 -9 -109 -61 -205 -116 -96 -55 -195 -111 -220 -125
-25 -14 -139 -79 -255 -145 -116 -66 -235 -134 -265 -150 -30 -17 -82 -47
-115 -66 l-60 -36 0 -655 0 -655 110 -63 c60 -35 133 -77 162 -93 29 -16 102
-58 164 -94 61 -36 113 -65 115 -65 2 0 27 -14 56 -31 29 -18 67 -39 83 -49
17 -9 80 -45 140 -80 61 -34 130 -74 155 -88 25 -13 71 -40 102 -58 l58 -33
167 96 c93 53 188 107 213 121 197 110 702 399 733 418 l37 24 0 653 0 653
-32 17 c-18 9 -44 23 -58 31 -45 28 -323 186 -326 186 -2 0 -33 18 -69 40 -36
22 -67 40 -69 40 -2 0 -70 39 -152 86 -82 47 -174 100 -204 116 -67 38 -188
107 -215 124 -16 10 -25 10 -50 -3z m-242 -512 c13 -1 17 -10 17 -44 l0 -43
-216 0 c-119 1 -219 -1 -223 -4 -12 -8 -8 -220 4 -221 5 -1 96 -3 200 -4 105
-1 195 -3 200 -4 11 -1 12 -67 2 -78 -4 -3 -98 -6 -209 -7 l-203 -1 -1 -126 0
-125 177 0 177 0 16 52 c21 68 82 136 153 170 47 23 72 28 143 30 99 3 161
-18 216 -74 36 -36 77 -113 66 -124 -4 -4 -25 -10 -48 -13 -40 -7 -40 -6 -56
32 -22 58 -74 94 -145 100 -161 14 -256 -85 -256 -267 -1 -178 57 -263 193
-288 87 -16 164 21 220 106 74 113 146 166 241 178 30 4 60 8 68 9 28 3 127
-17 166 -34 47 -21 88 -58 110 -101 18 -34 30 -100 18 -101 -83 -8 -93 -8 -93
3 0 28 -42 95 -70 111 -88 53 -255 32 -291 -35 -33 -61 -12 -117 53 -143 24
-9 94 -30 155 -46 62 -15 130 -37 152 -49 82 -41 124 -105 123 -187 -1 -142
-133 -239 -315 -232 -163 7 -266 70 -302 185 -22 72 -17 84 39 84 41 0 46 -3
52 -28 18 -73 66 -118 153 -140 89 -22 209 3 250 52 20 24 26 93 11 122 -16
28 -64 61 -101 67 -29 6 -148 39 -228 65 -39 12 -70 32 -106 67 -50 49 -52 50
-71 32 -45 -44 -96 -61 -187 -64 -93 -2 -146 11 -205 50 -65 43 -118 149 -129
257 -3 30 -9 57 -14 60 -4 3 -104 5 -221 5 l-214 0 0 372 0 372 25 3 c21 2
439 1 504 -1z"/>
</g>
</svg>
