<?xml version="1.0" encoding="UTF-8"?>
<svg width="210mm" height="210mm" clip-rule="evenodd" fill-rule="evenodd" image-rendering="optimizeQuality" shape-rendering="geometricPrecision" text-rendering="geometricPrecision" version="1.1" viewBox="0 0 21000 21000" xmlns="http://www.w3.org/2000/svg">
 <defs>
  <style type="text/css">.str0 {stroke:#FECC00;stroke-width:35.27} .fil2 {fill:none} .fil1 {fill:#2B2A29} .fil0 {fill:#FECC00} .fil3 {fill:#2B2A29;fill-rule:nonzero}</style>
 </defs>
 <rect class="fil0" transform="matrix(1.3102 1.3102 -1.3102 1.3102 10500 -384.86)" width="8308" height="8308" rx="500" ry="500"/>
 <path class="fil1" d="m11066 1466l8468 8468c311 311 310 822 0 1132l-8468 8468c-310 310-821 311-1132 0l-8468-8468c-311-311-311-821 0-1132l8468-8468c311-311 821-311 1132 0zm50-590l9008 9008c339 339 339 893 0 1232l-9008 9008c-339 339-893 339-1232 0l-9008-9008c-339-339-339-893 0-1232l9008-9008c339-339 893-339 1232 0z"/>
 <path class="fil1" d="m12437 9370c0 304-117 457-351 457-235 0-352-151-352-455v-3072h-175v7368c0 304-142 455-426 455s-426-151-426-452v-4358h-229v4358c0 301-142 452-426 452s-425-151-425-455v-7368h-176v3072c0 304-117 455-351 455-235 0-352-153-352-457v-3522c0-572 320-858 960-858h1776c635 0 953 286 953 858v3522z"/>
 <path class="fil1" d="m11342 3578c0 257-74 487-222 689-151 203-327 304-534 304s-383-101-534-304c-148-202-223-432-223-689 0-250 75-466 221-644s326-268 536-268c207 0 383 90 534 268 148 178 222 394 222 644z"/>
 <path class="fil2 str0" d="m11467 3384l-41 18c1 133-10 224-35 274-61 125-160 187-295 187-173 0-289-53-349-160-36-65-57-170-63-315l26-44c-30-25-68-37-116-37-47 0-86 12-115 37l25 44c-5 145-26 250-62 315-60 107-177 160-350 160-134 0-233-62-294-187-25-50-37-141-36-274l-40-18v-125c162-53 294-80 394-80s212 23 337 70c51-23 98-35 141-35 44 0 91 12 142 35 125-47 237-70 337-70s232 27 394 80v125z"/>
 <path class="fil1" d="m11467 3384l-41 18c1 133-10 224-35 274-61 125-160 187-295 187-173 0-289-53-349-160-36-65-57-170-63-315l26-44c-30-25-68-37-116-37-47 0-86 12-115 37l25 44c-5 145-26 250-62 315-60 107-177 160-350 160-134 0-233-62-294-187-25-50-37-141-36-274l-40-18v-125c162-53 294-80 394-80s212 23 337 70c51-23 98-35 141-35 44 0 91 12 142 35 125-47 237-70 337-70s232 27 394 80v125z"/>
 <path class="fil2 str0" d="m10383 3670c-50 88-145 132-287 132-110 0-191-51-242-154-32-66-31-234-62-341 133-44 241-66 323-66s174 19 277 57c46 125 60 248-9 372z"/>
 <path class="fil0" d="m10383 3670c-50 88-145 132-287 132-110 0-191-51-242-154-32-66-31-234-62-341 133-44 241-66 323-66s174 19 277 57c46 125 60 248-9 372z"/>
 <path class="fil2 str0" d="m10801 3670c49 88 145 132 287 132 110 0 191-51 241-154 33-66 32-234 62-341-133-44-240-66-322-66-83 0-175 19-277 57-47 125-60 248 9 372z"/>
 <path class="fil0" d="m10801 3670c49 88 145 132 287 132 110 0 191-51 241-154 33-66 32-234 62-341-133-44-240-66-322-66-83 0-175 19-277 57-47 125-60 248 9 372z"/>
 <polygon class="fil0" points="9906 4990 10132 4990 10132 7985 10297 8272 10206 8324 10019 8001 10004 8001 9817 8324 9726 8272 9906 7960"/>
 <polygon class="fil0" points="11068 4990 11294 4990 11294 7985 11459 8272 11368 8324 11181 8001 11166 8001 10979 8324 10888 8272 11068 7960"/>
 <polygon class="fil1" points="10575 4746 10250 4970 10250 4522"/>
 <polygon class="fil1" points="10575 4746 10900 4970 10900 4522"/>
 <path class="fil3" d="m7591 16196v-1222h239l503 819v-819h229v1222h-248l-495-803v803h-228zm1292 0v-1222h905v207h-657v271h610v207h-610v331h680v206h-928zm1198 0v-1222h520c131 0 226 11 285 33s106 61 142 117c35 57 53 121 53 193 0 92-26 167-80 227s-134 97-241 113c53 31 97 65 131 102 35 38 82 104 140 199l149 238h-295l-176-267c-64-94-107-154-131-179-23-24-48-41-74-50-27-9-68-14-125-14h-50v510h-248zm248-705h182c119 0 192-5 222-15 29-10 53-27 69-51 17-25 25-56 25-92 0-42-11-75-33-100s-53-41-93-48c-20-3-80-4-180-4h-192v310zm1045-517h450c101 0 179 8 232 24 71 21 133 58 184 112s89 120 116 198 40 175 40 289c0 101-13 187-38 260-30 89-73 161-130 216-43 42-101 74-173 97-54 18-127 26-218 26h-463v-1222zm247 207v809h184c68 0 118-4 148-12 40-10 73-27 99-51 27-24 48-63 65-118 16-54 25-129 25-223 0-95-9-167-25-218-17-50-40-90-70-118s-68-48-114-58c-34-7-101-11-201-11h-111zm980 619l241-24c14 81 43 140 88 178 44 37 103 56 178 56 79 0 139-17 179-50 40-34 60-73 60-118 0-29-8-53-25-74-17-20-47-38-89-52-28-11-94-28-196-54-132-33-224-73-278-121-74-68-112-150-112-247 0-62 18-121 53-175 35-55 86-96 152-124 66-29 146-43 240-43 153 0 268 34 345 102s118 158 122 272l-248 8c-10-63-33-108-67-136-35-27-86-41-155-41-71 0-127 15-167 44-26 19-39 45-39 77 0 29 12 53 37 74 31 26 106 54 226 82 119 28 208 58 265 88 58 30 103 72 135 124 32 53 49 118 49 195 0 70-20 135-59 197-39 61-94 106-165 136s-160 44-266 44c-154 0-273-35-355-107-83-71-132-174-149-311z"/>
</svg>
