<?xml version="1.0" encoding="UTF-8"?>
<svg viewBox="0 0 172.435 188.82327" xmlns="http://www.w3.org/2000/svg">
 <g transform="translate(-200.63 -304.95)">
  <path d="m336.87 389.08v56.971l-67.186-36.498 6.18-47.028 61.006 26.554z" fill="#484537" stroke="#000" stroke-miterlimit="3.864"/>
  <path d="m311.89 438.01-8.3823 29.161h-2.9888l6.2448-31.161 5.1262 2z" fill="#f00" stroke="#000" stroke-miterlimit="3.864" stroke-width="1.0512"/>
  <path d="m277.68 402.62v80.151l-60.77-54.568v-55.622l60.77 30.039z" fill="#aca793" stroke="#000" stroke-linecap="round" stroke-linejoin="round" stroke-miterlimit="3.864"/>
  <path d="m201.13 372.34 84.195-12.74 87.24 33.872-105.36 24.13-66.078-45.262z" fill="#c8c4b7" stroke="#000" stroke-linecap="round" stroke-linejoin="round" stroke-miterlimit="3.864"/>
  <g transform="translate(-112.38 -30.305)" stroke="#000" stroke-linecap="round" stroke-linejoin="round" stroke-miterlimit="3.864" stroke-width="1.4">
   <path d="m369.51 413.33 54.854-12.294 16.45 13.216 0.0225 3.2825-53.506 11.55-17.862-11.568 0.0425-4.1866z" fill="#7b7b7b"/>
   <path d="m387.84 429.09v-3.1023l-17.82-12.473m17.82 12.473 52.639-11.38" fill="none"/>
  </g>
  <path d="m340.87 425.23c-2.5512-1.6488-7.5962-1.5588-9.9038 1.1888s-3.1988 1.44-3.9788-0.22 3.76-7.1738 3.8575-7.3738c3.175-6.4938 13.209 1.0988 13.209 1.0988 20.375-6.945 2.6488-24.451 2.6488-24.451l6.6162-4.1762s22.224 23.864-7.8238 32.57c0 0 3.8338 4.6175-3.6712 7.8812s-6.1312-3.12-2.0838-4.0475c2.0025-0.45875 1.13-2.47 1.13-2.47z" fill="#e9c6af" stroke="#000" stroke-miterlimit="3.864"/>
  <path d="m328.39 456.91s1.92 17.939 5.8538 19.799 13.859 1.0912 13.578-3.35-1.2288-18.23-3.6238-19.53c-2.3962-1.3-5.3412-1.4012-5.3412-1.4012" fill="#808000" stroke="#000" stroke-miterlimit="3.864" stroke-width="1.0512"/>
  <path d="m351.83 437.42 5.4616 44.935-3.9649 0.52983-5.6396-45.402 4.143-0.0633z" fill="#f00" stroke="#000" stroke-linecap="round" stroke-linejoin="round" stroke-miterlimit="3.864"/>
  <path d="m324.13 444.89s0.76625 6.4582 3.0377 19.221c3.9 1.3 8.7893 4.6716 18.498-0.96339l-4.1282-22.389-17.408 4.1312z" fill="#04a" stroke="#000" stroke-miterlimit="3.864" stroke-width="1.0512"/>
  <path d="m293.32 458.44s-15.849-4.6838-9.145 7.56 13.568 18.866 22.669 17.356c5.6288-0.93375 1.2754-10.536 1.2754-10.536" fill="#808000" stroke="#000" stroke-miterlimit="3.864" stroke-width="1.0512"/>
  <path d="m324.14 447.99-0.38447 45.264-4.0001 0.0136 0.26812-45.75 4.1165 0.47203z" fill="#f00" stroke="#000" stroke-linecap="round" stroke-linejoin="round" stroke-miterlimit="3.864"/>
  <path d="m305.54 448.08c25.874 5.8016 46.464 4.5824 48.214-4.8214" fill="#f95" stroke="#000" stroke-width="3"/>
  <path d="m305.16 447.6 5.5077 25.232s-9.2496 9.277-19.212-4.7961c0 0 2.3407-11.722-0.86554-18.396s-6.5218-13.329 1.8857-16.969 16.044-2.1521 28.786-0.24589c47.864-7.7964 33.162 11.655 28.615 15.328-5.91 4.775-44.717-0.15321-44.717-0.15321z" fill="#04a" stroke="#000" stroke-linecap="round" stroke-linejoin="round" stroke-miterlimit="3.864"/>
  <g transform="translate(4.2857)">
   <path d="m245.85 367.79-3.7211 7.6671 5.0003-0.72469 2.5242-4.6096 15.563-2.2555 9.6624 2.8434 5.9352-0.86017-15.932-4.8188-19.032 2.7582z" fill="#333" stroke="#000"/>
   <path d="m252.16 355.41 0.53224 15.365 7.4232-1.0758-0.52088-14.949-7.4345 0.65977z" fill="#1a1a1a" stroke="#000" stroke-width=".78832"/>
   <g transform="translate(3.8397 -3.0418)">
    <path d="m225.33 314.55 54.73-5.5347c1.4242-0.20787 2.5787 0.77713 2.5787 2.2013v44.621c0 1.4253-1.1545 2.7492-2.5787 2.9571l-54.73 8.6923c-1.4242 0.20894-2.5787-0.77713-2.5787-2.2013v-47.779c0-1.4242 1.1545-2.7482 2.5787-2.9571" fill="#bdbcbc" stroke="#000" stroke-width="2"/>
    <path d="m225.99 318.36 53.424-5.4025v41.738l-53.424 8.485v-44.82" fill="#fff"/>
    <path d="m225.99 318.36 53.424-5.4025v41.738l-53.424 8.485v-44.82z" fill="none" stroke="#7b7979" stroke-miterlimit="3.864" stroke-width=".7"/>
   </g>
  </g>
  <g transform="translate(1.3393 2.8571)" fill="#808080" stroke="#000" stroke-linecap="round" stroke-linejoin="round">
   <path d="m264.46 397.27-9.1 2.1c3.9667 0.99145 8.8262 2.8747 11.9 9.1l8.3714-2.95c-2.6083-3.5468-5.3015-7.0329-11.171-8.25z" stroke-miterlimit="3.864" stroke-width="1.4"/>
   <path d="m254.94 402.58c0-2.8923 0.34724-3.3461 0.34724-3.3461 4.2054 0.75754 8.7003 2.3505 12.153 7.6393 1.4976-0.54278 3.636-1.3785 4.5501-1.6018 0.29255 0.63566 0.75449 0.65107 0.84791 1.5387-2.0438 0.3797-2.1466 0.72605-5.6505 1.7678-5.3033-3.4724-8.7757-5.11-12.248-5.9978z"/>
  </g>
  <path d="m274.48 409.55c-8.3182-1.9845-4.462-6.4656-8.1965-6.1559-3.7358 0.31092-3.4275-1.2412-2.7783-2.9656s9.0102-1.8333 9.2327-1.7701c9.0097 2.5605 8.0146 9.3932 8.0146 9.3932 31.878 13.876 26.681-5.2918 26.681-5.2918l7.9745 1.7232s0.99011 26.736-36.504 7.3708l-4.4242-2.3038z" fill="#e9c6af" stroke="#000" stroke-miterlimit="3.864" stroke-width="1.0217"/>
  <path d="m325.44 394.19 16.69-1.0338c-5.9488-17.15 4.0188-22.034 8.1888-24.665 2.0788 0.94125 6.5312-10.649 5.315-10.305l-2.06-16.828-36.572 2.055c-4.5162 11.018-6.0488 33.238 1.7088 35.862s6.73 14.914 6.73 14.914" fill="#e9c6af" stroke="#000"/>
  <path d="m315.03 363.31c-0.92375 11.239 7.62 9.8525 7.1588 20.166 0 0 13.278 1.8488 18.972-0.4625 0 0 0.46125-7.3925 8.0038-11.238s3.8512-17.798 3.8512-17.798l-37.986 9.3312z" fill="#520" stroke="#000" stroke-miterlimit="3.864" stroke-width="1.0512"/>
  <path d="m340.89 358.08 3.7738 9.6138c4.1888-0.7825 8.7012-1.9062 13.62-3.4575 0 0 2.46-36.636-21.091-33.864 0 0-12.311-10.315-23.55 0.92375-9.4012 9.4012-8.4662 32.016-8.4662 32.016s10.256 8.0875 33.374 5.3162l2.34-10.549z" fill="#520" stroke="#000" stroke-miterlimit="3.864" stroke-width="1.0512"/>
  <path d="m362.57 401.42s-6.5538-22.534-15.702-16.005-3.2525 24.499-3.2525 24.499 13.056-0.3275 18.955-8.4938z" fill="#164450" stroke="#000" stroke-miterlimit="3.864" stroke-width="1.0512"/>
  <path d="m320.85 387.06s2.9157 2.8559 12.981 2.4921c7.2937-0.26359 8.7416-1.9028 13.171-4.3126l11.244 51.303c-11.04 9.6975-39.864 6.7745-50.979-2.0467l13.583-47.436z" fill="#2c89a0" stroke="#000" stroke-miterlimit="3.864" stroke-width="1.0512"/>
  <path d="m304.56 403.29s6.5525-22.534 15.702-16.005 3.2512 24.499 3.2512 24.499-13.056-0.3275-18.954-8.4938" fill="#164450" stroke="#000"/>
  <path d="m313.93 398.43-0.71428 20.357c16.717 1.7328 33.03 1.0356 47.857-8.5714v-20c-15.714 8.359-31.429 9.306-47.143 8.2143z" fill="#ffb380" stroke="#000" stroke-linecap="round" stroke-linejoin="round"/>
  <path d="m324.87 405.23 0.35714 47.079 4.1796 0.4903-0.35714-47.527-4.1796-0.0423z" fill="#f00" stroke="#000" stroke-width="1.106"/>
  <path d="m350.42 401.33-0.17857 48.12 3.0952-2.5514 0.89286-47.151-3.8095 1.5829z" fill="#f00" stroke="#000" stroke-width="1.119"/>
  <path d="m249.26 347.28 18.435-24.496 8.5863 13.637-27.022 10.859z" fill="none" stroke="#000"/>
  <g font-family="Verdana" font-size="10" text-anchor="middle">
   <path d="m271.23 321.52h-1.0303l-0.71289-2.0264h-3.1445l-0.71289 2.0264h-0.98144l2.6465-7.2705h1.2891l2.6465 7.2705zm-2.041-2.8564-1.2744-3.5693-1.2793 3.5693h2.5537z"/>
  </g>
  <g font-family="Verdana" font-size="10" text-anchor="middle">
   <path d="m246.73154,351.35281c.0262.73717-.37468,1.46492-1.0213,1.82392-.79048.48861-1.74179.40428-2.63071.41241h-1.83139v-7.27051c.97398.007 1.94854-.0165 2.92201.0185 .64131.0249 1.37089.21161 1.73717.78517 .35629.63282.25796,1.53061-.32393,2.00001-.087.14527-.70115.32888-.25933.37436 .69984.17228 1.29233.7668 1.38092,1.49422 .0184.11969.0266.24086.0266.36193m-1.62598-3.27636c.0287-.36411-.19542-.72728-.55696-.82177-.54861-.15448-1.12718-.0993-1.69129-.11087h-.64238v2.09961c.63415-.01 1.27044.0258 1.90261-.0336 .45044-.0474.91648-.35323.96361-.83668 .0173-.0979.0244-.19732.0244-.29663m.62012,3.31543c.0155-.40478-.10715-.86031-.4879-1.0672-.49085-.3071-1.09621-.24897-1.64999-.26585h-1.37285v2.70508c.78991-.0137 1.58505.0429 2.36942-.0725 .54702-.0773 1.08939-.48892 1.12891-1.07236 .009-.0754.0124-.15136.0124-.22726"/>
  </g>
  <g font-family="Verdana" font-size="10" text-anchor="middle">
   <path d="m284.92825,338.16208c-.66551.32515-1.37283.58934-2.11729.64613-1.01921.0715-2.1357-.13189-2.88682-.87552-.83237-.80572-1.07587-2.02931-1.01996-3.14727 .034-1.09025.46453-2.23526 1.38845-2.87438 1.03781-.72199 2.41983-.7608 3.59922-.41009 .35747.11023.70199.25894 1.0364.42582v1.14746c-.23577-.0548-.40509-.30724-.63411-.41141-.84179-.54059-1.94352-.72485-2.89124-.36984-.86107.33593-1.35916,1.23565-1.45825,2.12054-.12323.9911-.004,2.10023.70142,2.86481 .63839.70088 1.67734.82132 2.56087.62364 .6177-.13284 1.18673-.44998 1.65299-.87266 .13719-.0179.0387.19992.0684.28951v.8433"/>
  </g>
  <path d="m272.16 341.66v5.5205l1.4228-1.4228 1.7538 3.0376 1.1058-0.63842-1.7327-2.9706 2.0602-0.22765-4.6099-3.2986z" fill="#fff" stroke="#000" stroke-width=".31871"/>
 </g>
</svg>
