<?xml version="1.0" encoding="UTF-8" standalone="no"?>
<!DOCTYPE svg PUBLIC "-//W3C//DTD SVG 1.1//EN" "http://www.w3.org/Graphics/SVG/1.1/DTD/svg11.dtd">
<svg width="100%" height="100%" viewBox="0 0 983 983" version="1.1" xmlns="http://www.w3.org/2000/svg" xmlns:xlink="http://www.w3.org/1999/xlink" xml:space="preserve" xmlns:serif="http://www.serif.com/" style="fill-rule:evenodd;clip-rule:evenodd;stroke-linejoin:round;stroke-miterlimit:1.41421;">
    <g transform="matrix(1,0,0,1,-230.095,-88.9448)">
        <g transform="matrix(1,0,0,1,228.689,347.541)">
            <text x="0px" y="0px" style="font-family:'Courier';font-size:30px;">class HeatDeathOfUniverse {</text>
        </g>
        <g transform="matrix(1,0,0,1,264.689,407.541)">
            <g>
                <text x="0px" y="0px" style="font-family:'Courier';font-size:30px;">public static void main(String[] args) {</text>
            </g>
        </g>
        <g transform="matrix(1,0,0,1,306.966,465.541)">
            <g>
                <text x="0px" y="0px" style="font-family:'Courier';font-size:30px;">loop();</text>
            </g>
        </g>
        <g transform="matrix(1,0,0,1,264.689,497.541)">
            <g>
                <text x="0px" y="0px" style="font-family:'Courier';font-size:30px;">}</text>
            </g>
        </g>
        <g transform="matrix(1,0,0,1,264.689,587.541)">
            <g>
                <text x="0px" y="0px" style="font-family:'Courier';font-size:30px;">public static void loop() {</text>
            </g>
        </g>
        <g transform="matrix(1,0,0,1,307.259,617.541)">
            <g>
                <text x="0px" y="0px" style="font-family:'Courier';font-size:30px;">if (1 &gt; 2) {</text>
            </g>
        </g>
        <g transform="matrix(1,0,0,1,348.452,643.571)">
            <g>
                <text x="0px" y="0px" style="font-family:'Courier';font-size:30px;">System.out.print(&quot;end of universe!&quot;);</text>
            </g>
        </g>
        <g transform="matrix(1,0,0,1,300.689,677.541)">
            <g>
                <text x="0px" y="0px" style="font-family:'Courier';font-size:30px;">} else {</text>
            </g>
        </g>
        <g transform="matrix(1,0,0,1,343.596,708.161)">
            <g>
                <text x="0px" y="0px" style="font-family:'Courier';font-size:30px;">System.out.print(&quot;not yet!&quot;);</text>
            </g>
        </g>
        <g transform="matrix(1,0,0,1,342.966,738.956)">
            <g>
                <text x="0px" y="0px" style="font-family:'Courier';font-size:30px;">loop();</text>
            </g>
        </g>
        <g transform="matrix(1,0,0,1,264.689,797.541)">
            <g>
                <text x="0px" y="0px" style="font-family:'Courier';font-size:30px;">}</text>
            </g>
        </g>
        <g transform="matrix(1,0,0,1,228.689,827.541)">
            <text x="0px" y="0px" style="font-family:'Courier';font-size:30px;">}</text>
        </g>
        <g transform="matrix(1,0,0,1,300.689,767.541)">
            <g>
                <text x="0px" y="0px" style="font-family:'Courier';font-size:30px;">}</text>
            </g>
        </g>
        <g transform="matrix(1,0,0,1,264.689,797.541)">
            <text x="0px" y="0px" style="font-family:'Courier';font-size:30px;">}</text>
        </g>
    </g>
</svg>
