<?xml version="1.0" encoding="UTF-8"?>
<svg viewBox="0 0 186.69 206.07" xmlns="http://www.w3.org/2000/svg">
 <defs>
  <filter id="e" x="-.064257" y="-.19277" width="1.1285" height="1.3855" color-interpolation-filters="sRGB">
   <feGaussianBlur stdDeviation="0.892504"/>
  </filter>
  <linearGradient id="g" x1=".37178" x2=".5" y1=".21006" y2=".99995">
   <stop stop-color="#e3e3e3" offset="0"/>
   <stop stop-color="#a5a5a8" offset="1"/>
  </linearGradient>
  <linearGradient id="a" x1=".51071" y1=".85309" y2=".5" spreadMethod="reflect">
   <stop stop-color="#fff" offset="0"/>
   <stop stop-color="#fff" stop-opacity="0" offset="1"/>
  </linearGradient>
  <linearGradient id="f" x2=".5" y1=".48579" y2=".48579" spreadMethod="reflect">
   <stop stop-color="#c6c6c6" offset="0"/>
   <stop stop-color="#e3e3e3" offset=".20485"/>
   <stop stop-color="#a5a5a8" offset="1"/>
  </linearGradient>
 </defs>
 <path d="m176.06 167.87c0 15.228-37.033 27.572-82.716 27.572s-82.716-12.344-82.716-27.572 37.033-27.572 82.716-27.572 82.716 12.344 82.716 27.572z" fill="#2e3436" filter="url(#e)"/>
 <path d="m10.662 28.604v126.36h0.5249c-0.33844 1.0132-0.5249 1.975-0.5249 3.0182 0 15.228 36.99 27.558 82.672 27.558 45.683 0 82.672-12.33 82.672-27.558 0-1.0447-0.18556-2.0038-0.52492-3.0182h0.52492v-126.36h-165.34z" fill="url(#f)"/>
 <path d="m176.06 27.572c0 15.228-37.033 27.572-82.716 27.572s-82.716-12.344-82.716-27.572 37.033-27.572 82.716-27.572 82.716 12.344 82.716 27.572z" fill="url(#g)"/>
 <path d="m10.531 119.28c0.61871 15.05 37.507 27.164 82.804 27.164 45.168 0 81.85-12.042 82.672-27.033-14.494 12.329-46.02 20.865-82.672 20.865-36.727 0-68.35-8.6271-82.804-20.996z" fill="#565656"/>
 <path d="m10.531 27.949c0.6173 15.05 37.508 27.161 82.805 27.161 45.167 0 81.852-12.039 82.67-27.03-0.90294 0.76839-1.852 1.4906-2.8849 2.2298-0.037933 0.050491-0.092529 0.084066-0.1302 0.1302-9.629 11.666-41.589 20.211-79.655 20.211-38.306 0-70.488-8.6966-79.916-20.471-0.10496-0.075609-0.15955-0.18889-0.2645-0.2645-0.91961-0.66766-1.8141-1.2725-2.6245-1.9653z" fill="url(#a)"/>
 <g transform="matrix(4.1992 0 0 4.1992 -914.56 -1633.8)">
  <path d="m220.3 406.96c0.14734 3.584 8.9318 6.4688 19.719 6.4688 10.756 0 19.492-2.8677 19.688-6.4375-3.4515 2.9359-10.959 4.9688-19.688 4.9688-8.7461 0-16.277-2.0544-19.719-5z" fill="#565656"/>
  <path d="m220.3 406.96c0.147 3.584 8.932 6.468 19.719 6.468 10.756 0 19.492-2.867 19.687-6.437-0.049011 0.041992-0.10504 0.083984-0.15601 0.125-1.242 3.227-9.511 5.719-19.531 5.719-10.113 0-18.468-2.511-19.594-5.781-0.040009-0.031982-0.085999-0.060974-0.125-0.093994z" fill="url(#a)"/>
  <path d="m220.3 417.48c0.147 3.584 8.932 6.468 19.719 6.468 10.756 0 19.492-2.867 19.687-6.437-0.049011 0.041992-0.10504 0.083984-0.15601 0.125-1.242 3.227-9.511 5.719-19.531 5.719-10.113 0-18.468-2.511-19.594-5.781-0.040009-0.031982-0.085999-0.060974-0.125-0.093994z" fill="url(#a)"/>
 </g>
 <path d="m11.056 164.82c4.7284 13.732 39.813 24.277 82.279 24.277 42.079 0 76.8-10.464 82.016-24.014-14.766 12.043-45.892 20.34-82.016 20.34-36.314 0-67.608-8.4562-82.279-20.602z" fill="#565656"/>
</svg>
