<?xml version="1.0" encoding="UTF-8" standalone="no"?>
<!DOCTYPE svg PUBLIC "-//W3C//DTD SVG 1.1//EN" "http://www.w3.org/Graphics/SVG/1.1/DTD/svg11.dtd">
<svg width="100%" height="100%" viewBox="0 0 710 751" version="1.1" xmlns="http://www.w3.org/2000/svg" xmlns:xlink="http://www.w3.org/1999/xlink" xml:space="preserve" xmlns:serif="http://www.serif.com/" style="fill-rule:evenodd;clip-rule:evenodd;stroke-linejoin:round;stroke-miterlimit:1.41421;">
    <g id="Javascript" transform="matrix(0.864049,0,0,0.867827,-283.77,201.233)">
        <g transform="matrix(4.16667,0,0,4.16667,907.09,633.498)">
            <path d="M0,-91.164L-40.275,-91.164L-80.551,-91.164L-73.003,-9.279L-40.275,0L-7.56,-9.279L0,-91.164Z" style="fill:rgb(230,163,42);fill-rule:nonzero;"/>
        </g>
        <g transform="matrix(0,4.16667,4.16667,0,969.515,374.365)">
            <path d="M-22.302,-55.257L55.257,-55.257L47.745,-28.755L-22.302,-22.301L-22.302,-55.257Z" style="fill:rgb(241,191,34);fill-rule:nonzero;"/>
        </g>
        <g transform="matrix(4.16667,0,0,4.16667,827.13,561.132)">
            <path d="M0,-57.078L-40.763,-57.078L-43.596,-26.418L-43.536,-26.61L-8.91,-26.61L-10.04,-13.641L-21.085,-10.457L-32.299,-13.689L-32.972,-21.538L-43.152,-21.538L-41.697,-5.853L-21.085,0L-0.473,-5.853L2.364,-36.634L-34.378,-36.634L-33.91,-46.898L-8.407,-46.898L-8.032,-41.023L2.239,-41.023L0,-57.078Z" style="fill:white;fill-rule:nonzero;"/>
        </g>
        <g transform="matrix(4.16667,0,0,4.16667,689.748,412.995)">
            <path d="M0,14.015L-10.18,14.015L-8.726,29.7L11.887,35.54L11.887,25.096L0.673,21.864L0,14.015ZM11.887,-21.525L-7.792,-21.525L-10.625,9.135L-10.564,8.943L11.887,8.943L11.887,-1.081L0.011,-1.081L0.479,-11.345L11.887,-11.345L11.887,-21.525Z" style="fill:rgb(235,235,236);fill-rule:nonzero;"/>
        </g>
        <g transform="matrix(4.16667,0,0,4.16667,706.616,182.487)">
            <path d="M0,5L-7.163,5L-7.163,10.144L5.133,10.144L5.133,-5.144L0,-5.144L0,5Z" style="fill:rgb(35,31,32);fill-rule:nonzero;"/>
        </g>
        <g transform="matrix(4.16667,0,0,4.16667,801.784,224.427)">
            <path d="M0,-15.132L-12.494,-15.132L-12.494,-9.778C-10.824,-8.107 -9.951,-7.307 -7.533,-4.889C-8.947,-4.889 -12.494,-4.884 -12.494,-4.884L-12.494,0L0,0L0,-4.885L-4.99,-9.778L0,-9.778L0,-15.132Z" style="fill:rgb(35,31,32);fill-rule:nonzero;"/>
        </g>
    </g>
    <g id="CSS" transform="matrix(0.999355,0,0,1.00098,198.33,-102.5)">
        <g id="polygon2989" transform="matrix(1,0,0,1,162.106,102.4)">
            <path d="M349.894,80.496L323.457,376.655L204.622,409.6L86.115,376.702L59.706,80.496L349.894,80.496Z" style="fill:rgb(38,77,228);fill-rule:nonzero;"/>
        </g>
        <g id="polygon2991" transform="matrix(1,0,0,1,162.106,102.4)">
            <path d="M300.824,357.797L323.416,104.715L204.8,104.715L204.8,384.418L300.824,357.797Z" style="fill:rgb(41,101,241);fill-rule:nonzero;"/>
        </g>
        <g id="polygon2993" transform="matrix(1,0,0,1,162.106,102.4)">
            <path d="M120.248,214.574L123.504,250.902L204.8,250.902L204.8,214.574L120.248,214.574Z" style="fill:rgb(235,235,235);fill-rule:nonzero;"/>
        </g>
        <g id="polygon2995" transform="matrix(1,0,0,1,162.106,102.4)">
            <path d="M204.8,141.044L204.674,141.044L113.706,141.044L117.008,177.373L204.8,177.373L204.8,141.044Z" style="fill:rgb(235,235,235);fill-rule:nonzero;"/>
        </g>
        <g id="polygon2997" transform="matrix(1,0,0,1,162.106,102.4)">
            <path d="M204.8,346.719L204.8,308.922L204.641,308.965L164.182,298.04L161.595,269.066L141.935,269.066L125.127,269.066L130.217,326.107L204.633,346.766L204.8,346.719Z" style="fill:rgb(235,235,235);fill-rule:nonzero;"/>
        </g>
        <g id="path2999" transform="matrix(1,0,0,1,162.106,102.4)">
            <path d="M128,0L172,0L172,18.4L146.4,18.4L146.4,36.8L172,36.8L172,55.2L128,55.2L128,0Z" style="fill-rule:nonzero;"/>
        </g>
        <g id="path3001" transform="matrix(1,0,0,1,162.106,102.4)">
            <path d="M180.8,0L224.8,0L224.8,16L199.2,16L199.2,19.2L224.8,19.2L224.8,56L180.8,56L180.8,39.2L206.4,39.2L206.4,36L180.8,36L180.8,0Z" style="fill-rule:nonzero;"/>
        </g>
        <g id="path3003" transform="matrix(1,0,0,1,162.106,102.4)">
            <path d="M233.6,0L277.6,0L277.6,16L252,16L252,19.2L277.6,19.2L277.6,56L233.6,56L233.6,39.2L259.2,39.2L259.2,36L233.6,36L233.6,0Z" style="fill-rule:nonzero;"/>
        </g>
        <g id="polygon3005" transform="matrix(1,0,0,1,162.106,102.4)">
            <path d="M249.409,250.902L245.192,298.017L204.674,308.953L204.674,346.748L279.15,326.107L279.696,319.97L288.233,224.329L289.119,214.574L295.678,141.044L204.674,141.044L204.674,177.373L255.865,177.373L252.559,214.574L204.674,214.574L204.674,250.902L249.409,250.902Z" style="fill:white;fill-rule:nonzero;"/>
        </g>
    </g>
    <g transform="matrix(0.799338,0,0,0.800781,-59.6307,0)">
        <path d="M108.4,0L131.4,0L131.4,22.8L152.6,22.8L152.6,0L175.6,0L175.6,69L152.6,69L152.6,46L131.6,46L131.6,69L108.4,69M206,23L185.7,23L185.7,0L249.4,0L249.4,23L229,23L229,69L206,69M259.5,0L283.6,0L298.4,24.3L313.2,0L337.3,0L337.3,69L314.3,69L314.3,34.8L298.2,59.6L282.1,34.8L282.1,69L259.5,69M348.7,0L371.7,0L371.7,46.2L404.3,46.2L404.3,69L348.7,69" style="fill-rule:nonzero;"/>
        <path d="M107.6,471L74.6,100.6L437.4,100.6L404.4,470.8L255.7,512" style="fill:rgb(228,77,38);fill-rule:nonzero;"/>
        <path d="M256,480.5L256,131L404.3,131L376,447" style="fill:rgb(241,101,41);fill-rule:nonzero;"/>
        <path d="M142,176.3L256,176.3L256,221.7L191.8,221.7L196,268.2L256,268.2L256,313.5L154.4,313.5M156.4,336.3L202,336.3L205.2,372.6L256,386.2L256,433.6L162.8,407.6" style="fill:rgb(235,235,235);fill-rule:nonzero;"/>
        <path d="M369.6,176.3L255.8,176.3L255.8,221.7L365.4,221.7M361.3,268.2L255.8,268.2L255.8,313.6L311.8,313.6L306.5,372.6L255.8,386.2L255.8,433.4L348.8,407.6" style="fill:white;fill-rule:nonzero;"/>
    </g>
</svg>
