<?xml version="1.0" encoding="UTF-8" standalone="no"?>
<!DOCTYPE svg PUBLIC "-//W3C//DTD SVG 1.1//EN" "http://www.w3.org/Graphics/SVG/1.1/DTD/svg11.dtd">
<svg width="100%" height="100%" viewBox="0 0 503 503" version="1.1" xmlns="http://www.w3.org/2000/svg" xmlns:xlink="http://www.w3.org/1999/xlink" xml:space="preserve" xmlns:serif="http://www.serif.com/" style="fill-rule:evenodd;clip-rule:evenodd;stroke-linejoin:round;stroke-miterlimit:1.41421;">
    <g>
        <g>
            <path d="M240.864,269.894C240.864,269.894 212.844,215.902 213.879,176.449C214.634,148.256 278.203,120.387 303.16,79.92C328.074,39.431 300.054,0 300.054,0C300.054,0 306.288,29.077 289.678,59.147C273.069,89.26 211.764,106.926 187.929,158.826C164.094,210.726 240.864,269.894 240.864,269.894Z" style="fill:rgb(234,45,46);fill-rule:nonzero;"/>
            <path d="M345.741,105.869C345.741,105.869 250.247,142.216 250.247,183.718C250.247,225.263 276.175,238.745 280.36,252.227C284.502,265.752 273.091,288.574 273.091,288.574C273.091,288.574 310.452,262.624 304.196,232.512C297.962,202.399 268.906,193.037 285.537,162.968C296.646,142.799 345.741,105.869 345.741,105.869Z" style="fill:rgb(234,45,46);fill-rule:nonzero;"/>
            <path d="M230.51,324.748C318.756,321.599 350.94,293.751 350.94,293.751C293.864,309.304 142.286,308.29 141.229,296.879C140.215,285.468 187.93,276.106 187.93,276.106C187.93,276.106 113.209,276.106 106.975,294.786C100.74,313.467 142.328,327.833 230.51,324.748Z" style="fill:rgb(0,116,189);fill-rule:nonzero;"/>
            <path d="M358.187,368.494C358.187,368.494 444.556,350.073 436.014,303.156C425.66,246.037 365.434,278.22 365.434,278.22C365.434,278.22 408.036,278.22 412.156,304.148C416.32,330.098 358.187,368.494 358.187,368.494Z" style="fill:rgb(0,116,189);fill-rule:nonzero;"/>
            <path d="M315.628,343.601C315.628,343.601 293.863,349.317 261.615,352.941C218.387,357.794 166.121,353.955 161.958,346.685C157.86,339.416 169.227,335.274 169.227,335.274C117.306,347.742 145.715,369.507 206.566,373.692C258.724,377.251 336.357,358.118 336.357,358.118L315.628,343.601Z" style="fill:rgb(0,116,189);fill-rule:nonzero;"/>
            <path d="M181.738,388.943C181.738,388.943 158.183,389.612 156.802,402.08C155.443,414.462 171.298,425.592 229.452,429.044C287.585,432.495 328.44,413.146 328.44,413.146L302.145,397.184C302.145,397.184 285.514,400.678 259.909,404.13C234.283,407.603 181.736,401.347 179.666,396.537C177.553,391.682 181.738,388.943 181.738,388.943Z" style="fill:rgb(0,116,189);fill-rule:nonzero;"/>
            <path d="M407.994,445.005C416.989,435.298 405.211,427.684 405.211,427.684C405.211,427.684 409.353,432.537 403.874,438.06C398.33,443.582 347.79,457.409 266.813,461.572C185.858,465.735 97.957,453.957 95.174,443.582C92.478,433.206 140.192,424.923 140.192,424.923C134.67,425.613 68.232,426.994 66.118,445.005C64.047,462.973 95.174,477.512 219.788,477.512C344.339,477.491 399.042,454.647 407.994,445.005Z" style="fill:rgb(0,116,189);fill-rule:nonzero;"/>
            <path d="M359.568,485.817C304.886,496.861 138.834,489.894 138.834,489.894C138.834,489.894 246.753,515.52 369.943,494.079C428.831,483.811 432.261,455.316 432.261,455.316C432.261,455.316 414.25,474.708 359.568,485.817Z" style="fill:rgb(0,116,189);fill-rule:nonzero;"/>
        </g>
    </g>
</svg>
