<?xml version="1.0" encoding="UTF-8"?>
<svg viewBox="0 0 640 480" xmlns="http://www.w3.org/2000/svg">
 <g fill="#845e3a" fill-rule="evenodd">
  <path d="m466.1 89.728c0.10318 14.888-10.786 28.071-22.291 37.609-16.642 13.687-42.22 22.527-62.457 29.738 34.207-2.2487 77.815-9.1114 96.614-28.613 9.3995-9.7706 19.518-24.659 16.333-40.401-2.7221-13.57-21.213-21.635-40.834-21.325 5.3424 7.4832 12.533 12.407 12.635 22.992zm-189.48 103.25c1.8489 1.2017 3.1847 5.777 5.906 4.4588-4.0571-3.9543 0.97635-9.3827 0.77069-13.997 15.922-13.881 36.108-23.109 58.708-31.987 22.343-8.8396 46.33-16.013 63.896-28.614 0.15439-0.69782 1.13-1.163-0.77075-1.1244-39.036 24.117-125.53 20.394-128.51 71.263zm-43.865-11.244c-24.654 4.0327-68.158 2.4813-87.676 11.244-14.074 8.8396 2.2089 15.121 8.1669 23.535 5.9579 8.4523 9.6556 19.115 14.125 28.614 4.5204 9.6153 8.7319 19.58 13.406 29.196 6.9848 14.579 14.844 29.079 18.542 44.859 2.5171 10.623 0.66753 19.929 9.6556 24.698 22.086 11.709 73.911 7.9098 98.104 0.54315 3.2359-5.5837 6.4717-11.166 7.3962-18.495 15.152-0.27124 17.053-12.601 25.271-19.076 4.0578-3.2178 12.225-6.3583 18.594-10.119 17.258-10.158 41.244-25.977 43.093-45.441 1.0269-10.778-4.8791-23.922-17.823-28.032-24.962-7.9484-19.878 16.052-28.969 21.867 1.6952-8.9562 6.2668-15.819 5.9075-26.365-0.46262-2.7918-6.7799-1.2017-7.3969-3.9162 6.6261-5.1566 21.059-4.0709 19.313-14.035-0.97568-5.4671-13.611-9.8093-23.781-12.329-17.104-4.2261-35.132-5.7389-55.01-5.0405-3.4928 2.0161-6.8824 4.1488-7.3962 8.4131 17.514 2.6366 41.552 3.4123 59.427 3.9162-13.508-4.2256-32.616-4.1869-48.282-6.7462 22.651 0.3481 45.457 1.2404 57.218 8.9949-17.104 12.717-57.064 12.407-92.915 11.205-26.143-0.85307-63.69 0.77519-86.186-4.4974-6.2668-1.4349-17.053-3.9162-12.636-10.624 3.031 0.15523 2.9797 3.9162 6.7286 4.4588 2.4659 0.3884 10.375-2.5974 14.844-3.3731 16.847-2.7526 37.443-1.8608 53.469-3.3344-0.87462-1.8614 0.35796-11.012-5.1893-10.12zm198.41-136.32c7.6018 13.687-0.92441 32.724-7.4474 38.694-15.872 14.54-40.423 23.69-71.344 30.32-14.535 3.1013-29.944 5.0019-43.812 8.9562-22.651 6.4749-49.052 16.284-58.708 31.444-9.1938 14.462-17.104 45.518 7.4474 49.357 0.15445-4.2648-3.1327-7.0567-3.749-11.786-2.3627-18.262 7.5498-31.832 18.593-40.944 13.867-8.181 31.845-11.632 52.749-14.578 28.969-4.1096 58.143-10.197 78.74-20.2 11.402-5.5439 19.723-12.291 31.948-17.952-7.2425 17.913-25.63 27.373-45.302 36.446-10.426 4.8461-21.367 10.235-31.229 14.035-10.273 3.9544-23.986 7.0561-32.666 11.786-2.6196 1.4349-7.6018 4.4974-5.958 5.6223 55.78-11.322 129.28-24.194 135.24-72.388 1.0788-8.8783-0.30814-14.888-5.1872-19.076-1.7463 6.7467-4.2628 15.858-10.426 17.408 3.5952-11.166 14.278-25.202 8.1668-38.152-3.5959-7.6771-12.79-13.531-22.291-16.866-0.71948 0-0.87396-0.42653-1.4902-0.54311 2.6686 4.0338 5.3394 5.9339 6.7272 8.4152zm-271.97 319.79c22.291 9.3828 63.588 13.027 101.8 11.786 24.037-0.81442 51.465 0.93039 67.593-7.2888-54.342 7.2501-121.47 1.3183-169.4-4.4974zm-4.4684-158.23c6.0611 3.5675 28.66 5.777 34.927 2.8305-19.364 0.038696-30.664-6.0483-39.395-14.035h-1.4382c-1.2846 3.5278 2.2595 9.0341 5.906 11.205zm37.906 12.911c38.83 3.9162 94.61 5.9323 127.07-1.6674-55.215 2.7913-123.01 3.4897-162.72-8.4136 3.2864 8.8014 21.675 8.6854 35.645 10.081zm-19.312 7.2898c14.638 1.8221 34.412 2.8305 49.771 2.2487-12.276-5.5057-34.978-3.1405-49.771-6.7467v4.498zm0.7188 8.4131c10.889 3.2178 27.479 2.0935 42.374 2.2493-2.0552-4.9627-9.1426-2.6753-15.614-2.7918-8.5782-0.19344-20.186-3.567-26.761-3.9156v4.4582zm183.57 51.644c10.375-11.865 36.724-21.984 34.156-41.525-0.51382-4.0328-4.0066-8.2196-8.1669-8.9954-18.85-3.4505-19.261 14.462-32.719 16.827-8.3206 20.821-23.267 39.625-29.688 60.058 8.8351-11.282 18.748-21.751 36.417-26.365zm-180.59-43.774c10.735 4.924 28.148 1.4349 43.865 2.2493-10.17-5.0406-30.304-2.5592-43.865-5.0406v2.7913zm3.7504 11.206c14.433-1.0857 33.951 2.0548 43.812-1.1244-13.508-2.7145-32.256-1.4348-45.302-4.4588-0.51309 2.5974 1.1301 3.6057 1.4902 5.5832zm4.4172 8.9953c14.433-0.23312 28.198 1.3564 40.165 0-10.169-4.5366-28.095-3.141-42.374-4.4979-0.61629 2.52 1.7464 2.7918 2.209 4.4979zm4.4684 8.9562c10.016-0.27133 27.119 2.9078 33.437-1.6674-11.3-1.0084-26.041-2.404-36.416-2.2493 1.5927 0.85315 2.1577 2.4819 2.9797 3.9168zm4.4691 9.5375c9.8613-1.1631 26.092 2.52 31.228-2.2493-9.1418-2.0548-24.397-2.5199-33.436-2.7913 1.2318 1.3188 1.8994 3.0244 2.2082 5.0406zm4.4684 8.9954c10.323 1.1244 23.114 0.58182 32.666-0.58127-6.7286-5.3124-24.552-0.50388-34.156-4.4593-0.35939 2.3266 2.157 2.4426 1.4902 5.0405zm8.1655 11.205c11.609-1.1243 27.223 0.73651 34.156-3.9156-11.916-0.89172-26.195-0.038666-37.135-1.7061-0.51308 3.0239 2.209 3.6056 2.979 5.6218zm2.209 8.4136c10.889 0.31 28.353 1.3956 34.927-3.373-10.786-1.163-25.014 0.19388-35.646-1.1244-1.6951 1.3565 1.6439 2.0935 0.71878 4.4974zm2.2602 7.8705c8.9889 2.3648 25.579 2.6747 31.948-1.7061-10.17-1.1244-21.418-1.3962-31.948-2.2101v3.9162zm1.4895 6.708c6.7287 3.8383 26.811 5.1952 34.926 1.1244-9.6044-2.6366-23.524-2.0548-34.926-3.3344v2.21zm0 11.786c13.56 3.4897 40.268 4.7693 57.937 2.8305 3.2871-0.38782 6.2668-0.96906 8.1676-2.8305-25.22 0-48.795-1.3183-68.364-5.5831-0.36011 2.7139 2.3114 3.1018 2.2595 5.5831zm164.93-90.3c-15.1 7.8705-27.684 17.603-30.458 34.778 9.3994-2.636 16.282-7.134 23.01-11.786 0.51386-3.7223 3.6978-5.4671 7.4475-6.7467 2.4146-4.4587 7.5506-9.4601 5.1879-15.702-2.5676 0.46521-2.8245-0.8139-5.1879-0.54309z"/>
  <path d="m360.56 315.11c9.829 1.6644 18.913 4.3522 26.511 8.8321-18.807 4.2883-40.376-12.992-56.154-0.95953 13.228 5.4403 32.46 3.5196 43.776 11.136-14.77 4.3522-33.788-7.8079-43.776 3.6481 8.3936 2.5601 18.54 3.0717 26.138 6.5274-9.2975 4.8638-27.945-1.5997-35.382 5.5679 5.3653 5.5679 15.779 1.2157 23.854 1.8568-1.0622 6.7199-10.147 3.8397-15.353 5.5671 27.838 1.7921 66.461-8.3196 82.983-26.88 0.15973-4.7362-3.0282-5.6327-3.082-10.176 4.8883 2.0484 7.9159 8.7035 6.1625 16.64-1.6466 7.2323-17.69 13.632-27.679 16.705-37.242 11.456-88.668 20.736-137.81 20.48v0.38397c-44.201-1.5349-88.88-9.9201-122.24-20.288-9.9872-3.0726-26.032-9.4724-27.626-16.641-1.8586-7.9356 1.2219-14.592 6.1102-16.64-0.052994 4.5437-3.1872 5.3764-3.082 10.112 16.522 18.626 55.145 28.738 82.983 26.882-5.2063-1.6645-14.344 1.2158-15.353-5.568 8.0756-0.6402 18.541 3.7758 23.801-1.8568-7.3844-7.1038-26.032-0.7041-35.276-5.5042 7.5441-3.5195 17.691-3.9682 26.085-6.5274-9.9872-11.52-28.953 0.70413-43.776-3.6481 11.369-7.6163 30.6-5.7595 43.776-11.136-15.779-12.032-37.347 5.184-56.101 0.8956 15.991-9.4076 38.676-10.816 61.52-12.032 0.21201-17.536-17.001-15.233-30.016-13.888-22.685 2.3047-54.083 10.24-66.089 19.456-3.9314 3.0717-8.3413 10.623-8.4473 15.744-0.58445 20.352 26.297 27.137 41.492 33.345 14.663 5.9519 27.52 9.4076 43.032 12.032 8.872 1.4721 16.682 6.0796 25.342 7.361 13.866 2.239 32.566 0.89563 46.166 3.7758 4.0374 0.83176 8.0756 1.2157 12.272 1.3443l-0.106-0.5755c6.482 0.19241 12.75-0.1286 18.807-1.4082 13.601-2.8164 32.301-1.5359 46.166-3.6481 8.66-1.4082 16.47-5.9519 25.342-7.4239 15.513-2.6877 28.369-6.1443 43.032-12.032 15.194-6.1444 42.129-12.992 41.492-33.345-0.10672-5.1849-4.4629-12.736-8.4473-15.744-9.2445-7.1686-29.91-13.441-49.301-17.025-7.7569-1.4082-23.429-5.6317-26.191 7.4887-1.8064 8.5758 10.041 6.7198 13.919 7.0391 0.15973 0.062988 0.37244 0.062988 0.53143 0.1268z"/>
 </g>
</svg>
