<?xml version="1.0" encoding="UTF-8" standalone="no"?>
<!DOCTYPE svg PUBLIC "-//W3C//DTD SVG 1.1//EN" "http://www.w3.org/Graphics/SVG/1.1/DTD/svg11.dtd">
<svg width="100%" height="100%" viewBox="0 0 3747 2266" version="1.1" xmlns="http://www.w3.org/2000/svg" xmlns:xlink="http://www.w3.org/1999/xlink" xml:space="preserve" xmlns:serif="http://www.serif.com/" style="fill-rule:evenodd;clip-rule:evenodd;stroke-linecap:round;stroke-linejoin:round;stroke-miterlimit:1.5;">
    <g transform="matrix(4.16667,0,0,4.16667,0,0)">
        <g transform="matrix(0.895745,0,0,1.0011,-125.681,-86.0433)">
            <rect x="204" y="124" width="940" height="505" style="fill:rgb(235,235,235);fill-opacity:0;stroke:black;stroke-width:5.26px;"/>
        </g>
        <g transform="matrix(1,0,0,1,15.7155,-26.8459)">
            <text x="706.016px" y="494.908px" style="font-family:'ArialMT', 'Arial', sans-serif;font-size:18.667px;">Java</text>
            <text x="706.025px" y="514.185px" style="font-family:'ArialMT', 'Arial', sans-serif;font-size:18.667px;">User</text>
            <text x="699.791px" y="533.463px" style="font-family:'ArialMT', 'Arial', sans-serif;font-size:18.667px;">Group</text>
        </g>
        <g transform="matrix(1,0,0,1,27.015,-20.8947)">
            <text x="570.492px" y="507.58px" style="font-family:'ArialMT', 'Arial', sans-serif;font-size:18.667px;">Java</text>
            <text x="570.501px" y="526.858px" style="font-family:'ArialMT', 'Arial', sans-serif;font-size:18.667px;">User</text>
            <text x="564.267px" y="546.135px" style="font-family:'ArialMT', 'Arial', sans-serif;font-size:18.667px;">Group</text>
        </g>
        <g transform="matrix(1,0,0,1,32.246,74.0658)">
            <text x="762.149px" y="101.538px" style="font-family:'ArialMT', 'Arial', sans-serif;font-size:18.667px;">Front End</text>
            <text x="778.236px" y="120.816px" style="font-family:'ArialMT', 'Arial', sans-serif;font-size:18.667px;">Crash</text>
            <text x="773.045px" y="140.093px" style="font-family:'ArialMT', 'Arial', sans-serif;font-size:18.667px;">Course</text>
        </g>
        <g transform="matrix(1,0,0,1,50,26.5964)">
            <text x="378.42px" y="424.687px" style="font-family:'ArialMT', 'Arial', sans-serif;font-size:18.667px;">Front End</text>
            <text x="394.507px" y="443.965px" style="font-family:'ArialMT', 'Arial', sans-serif;font-size:18.667px;">Crash</text>
            <text x="389.316px" y="463.242px" style="font-family:'ArialMT', 'Arial', sans-serif;font-size:18.667px;">Course</text>
        </g>
        <g transform="matrix(1,0,0,1,-4.81163,8.84831)">
            <text x="174.546px" y="442.436px" style="font-family:'ArialMT', 'Arial', sans-serif;font-size:18.667px;">Front End</text>
            <text x="190.634px" y="461.713px" style="font-family:'ArialMT', 'Arial', sans-serif;font-size:18.667px;">Crash</text>
            <text x="185.443px" y="480.99px" style="font-family:'ArialMT', 'Arial', sans-serif;font-size:18.667px;">Course</text>
        </g>
        <g transform="matrix(1,0,0,1,2,-7.83766)">
            <text x="345.204px" y="515.831px" style="font-family:'ArialMT', 'Arial', sans-serif;font-size:18.667px;">Java</text>
        </g>
        <path d="M401.551,402.593L270,541.147" style="fill:none;stroke:black;stroke-width:1px;"/>
        <g transform="matrix(1.42448,0,0,1.42954,-258.967,-125.03)">
            <text x="181.645px" y="124.555px" style="font-family:'ArialMT', 'Arial', sans-serif;font-size:12px;">8am</text>
            <text x="181.645px" y="149.34px" style="font-family:'ArialMT', 'Arial', sans-serif;font-size:12px;">9am</text>
            <text x="181.645px" y="174.125px" style="font-family:'ArialMT', 'Arial', sans-serif;font-size:12px;">10am</text>
            <text x="181.645px" y="198.91px" style="font-family:'ArialMT', 'Arial', sans-serif;font-size:12px;">1<tspan x="187.429px 194.102px " y="198.91px 198.91px ">1a</tspan>m</text>
            <text x="181.645px" y="223.695px" style="font-family:'ArialMT', 'Arial', sans-serif;font-size:12px;">12pm</text>
            <text x="181.645px" y="248.481px" style="font-family:'ArialMT', 'Arial', sans-serif;font-size:12px;">1pm</text>
            <text x="181.645px" y="273.266px" style="font-family:'ArialMT', 'Arial', sans-serif;font-size:12px;">2pm</text>
            <text x="181.645px" y="298.051px" style="font-family:'ArialMT', 'Arial', sans-serif;font-size:12px;">3pm</text>
            <text x="181.645px" y="322.836px" style="font-family:'ArialMT', 'Arial', sans-serif;font-size:12px;">4pm</text>
            <text x="181.645px" y="347.621px" style="font-family:'ArialMT', 'Arial', sans-serif;font-size:12px;">5pm</text>
            <text x="181.645px" y="372.406px" style="font-family:'ArialMT', 'Arial', sans-serif;font-size:12px;">6pm</text>
            <text x="181.645px" y="397.191px" style="font-family:'ArialMT', 'Arial', sans-serif;font-size:12px;">7pm</text>
            <text x="181.645px" y="421.977px" style="font-family:'ArialMT', 'Arial', sans-serif;font-size:12px;">8pm</text>
            <text x="181.645px" y="446.762px" style="font-family:'ArialMT', 'Arial', sans-serif;font-size:12px;">9pm</text>
        </g>
        <g transform="matrix(1,0,0,1,-171.313,-85.1301)">
            <text x="240.098px" y="98.235px" style="font-family:'ArialMT', 'Arial', sans-serif;font-size:18px;">Monday <tspan x="312.098px 348.098px 358.425px 368.436px " y="98.235px 98.235px 98.235px 98.235px "> Tue</tspan>sday <tspan x="420.098px 456.098px 472.762px 482.773px " y="98.235px 98.235px 98.235px 98.235px "> Wed</tspan>nesday <tspan x="564.098px 600.098px " y="98.235px 98.235px "> T</tspan>hursday <tspan x="708.098px 744.098px " y="98.235px 98.235px "> F</tspan>riday <tspan x="816.098px 852.098px " y="98.235px 98.235px "> S</tspan>aturday <tspan x="960.098px 996.098px " y="98.235px 98.235px "> S</tspan>unday</text>
        </g>
        <g transform="matrix(1,0,0,1,-74.449,-88.1301)">
            <path d="M232,123.723L232,629.277" style="fill:none;stroke:black;stroke-width:1.5px;"/>
        </g>
        <g transform="matrix(1,0,0,1,36.551,-88.1301)">
            <path d="M232,123.723L232,629.277" style="fill:none;stroke:black;stroke-width:1.5px;"/>
        </g>
        <g transform="matrix(1,0,0,1,299.551,-88.1301)">
            <path d="M232,123.723L232,629.277" style="fill:none;stroke:black;stroke-width:1.5px;"/>
        </g>
        <g transform="matrix(1,0,0,1,420.551,-88.1301)">
            <path d="M232,123.723L232,629.277" style="fill:none;stroke:black;stroke-width:1.5px;"/>
        </g>
        <g transform="matrix(1,0,0,1,546.551,-88.1301)">
            <path d="M232.449,126.223L232,629.277" style="fill:none;stroke:black;stroke-width:1.5px;"/>
        </g>
        <g transform="matrix(1,0,0,1,169.551,-88.1301)">
            <path d="M232,123.723L232,629.277" style="fill:none;stroke:black;stroke-width:1.5px;"/>
        </g>
        <g transform="matrix(0.710214,0,0,1,-110.219,278.87)">
            <path d="M232,123.723L1074,123.723" style="fill:none;stroke:black;stroke-width:1.73px;"/>
        </g>
        <g transform="matrix(1,0,0,1,-168.449,-92.1301)">
            <text x="256.913px" y="308.969px" style="font-family:'ArialMT', 'Arial', sans-serif;font-size:18px;">Boot</text>
            <text x="251.419px" y="327.558px" style="font-family:'ArialMT', 'Arial', sans-serif;font-size:18px;">Camp</text>
        </g>
        <g transform="matrix(1,0,0,1,-62.449,-92.1301)">
            <text x="256.913px" y="308.969px" style="font-family:'ArialMT', 'Arial', sans-serif;font-size:18px;">Boot</text>
            <text x="251.419px" y="327.558px" style="font-family:'ArialMT', 'Arial', sans-serif;font-size:18px;">Camp</text>
        </g>
        <g transform="matrix(1,0,0,1,54.8376,-92.1301)">
            <text x="256.913px" y="308.969px" style="font-family:'ArialMT', 'Arial', sans-serif;font-size:18px;">Boot</text>
            <text x="251.419px" y="327.558px" style="font-family:'ArialMT', 'Arial', sans-serif;font-size:18px;">Camp</text>
        </g>
        <g transform="matrix(1,0,0,1,187.036,-92.1301)">
            <text x="256.913px" y="308.969px" style="font-family:'ArialMT', 'Arial', sans-serif;font-size:18px;">Boot</text>
            <text x="251.419px" y="327.558px" style="font-family:'ArialMT', 'Arial', sans-serif;font-size:18px;">Camp</text>
        </g>
        <g transform="matrix(1,0,0,1,316.551,-92.1301)">
            <text x="256.913px" y="308.969px" style="font-family:'ArialMT', 'Arial', sans-serif;font-size:18px;">Boot</text>
            <text x="251.419px" y="327.558px" style="font-family:'ArialMT', 'Arial', sans-serif;font-size:18px;">Camp</text>
        </g>
        <g transform="matrix(0.289786,0,0,1,585.321,206.87)">
            <path d="M232,123.723L1074,123.723" style="fill:none;stroke:black;stroke-width:2.04px;"/>
        </g>
        <g transform="matrix(1,0,0,1,-162.137,-95.6225)">
            <text x="967.355px" y="529.016px" style="font-family:'ArialMT', 'Arial', sans-serif;font-size:16px;">W<tspan x="982.168px 991.066px " y="529.016px 529.016px ">e </tspan>need</text>
            <text x="972.547px" y="545.54px" style="font-family:'ArialMT', 'Arial', sans-serif;font-size:16px;">a break</text>
        </g>
        <path d="M57.051,543.647L157.359,402.844" style="fill:none;stroke:black;stroke-width:1px;"/>
        <g transform="matrix(1,0,0,1,-8.50045,-19.5571)">
            <text x="72.966px" y="455.841px" style="font-family:'ArialMT', 'Arial', sans-serif;font-size:18.667px;">React</text>
            <text x="70.369px" y="475.118px" style="font-family:'ArialMT', 'Arial', sans-serif;font-size:18.667px;">Redux</text>
        </g>
        <g transform="matrix(1,0,0,1,23.137,58.9472)">
            <text x="72.966px" y="455.841px" style="font-family:'ArialMT', 'Arial', sans-serif;font-size:18.667px;">Java</text>
        </g>
        <g transform="matrix(1,0,0,1,-9,-0.779303)">
            <text x="297.458px" y="437.063px" style="font-family:'ArialMT', 'Arial', sans-serif;font-size:18.667px;">React</text>
            <text x="294.86px" y="456.341px" style="font-family:'ArialMT', 'Arial', sans-serif;font-size:18.667px;">Redux</text>
        </g>
        <path d="M779,330.593" style="fill:none;stroke:black;stroke-width:1px;"/>
        <g transform="matrix(1,0,0,1,43.2994,57)">
            <text x="628.845px" y="118.604px" style="font-family:'ArialMT', 'Arial', sans-serif;font-size:18.667px;">Front End</text>
            <text x="644.932px" y="137.881px" style="font-family:'ArialMT', 'Arial', sans-serif;font-size:18.667px;">Crash</text>
            <text x="639.742px" y="157.159px" style="font-family:'ArialMT', 'Arial', sans-serif;font-size:18.667px;">Course</text>
        </g>
        <path d="M531.551,543.647L653,403" style="fill:none;stroke:black;stroke-width:1px;"/>
        <g transform="matrix(1,0,0,1,21.173,-18)">
            <text x="529.741px" y="449.713px" style="font-family:'ArialMT', 'Arial', sans-serif;font-size:18.667px;">Meet</text>
            <text x="533.892px" y="468.991px" style="font-family:'ArialMT', 'Arial', sans-serif;font-size:18.667px;">Ups</text>
        </g>
        <path d="M653,541.147L780,330" style="fill:none;stroke:black;stroke-width:1px;"/>
        <g transform="matrix(1,0,0,1,19.6762,12.2526)">
            <text x="655.462px" y="383.112px" style="font-family:'ArialMT', 'Arial', sans-serif;font-size:18.667px;">Meet</text>
            <text x="659.613px" y="402.389px" style="font-family:'ArialMT', 'Arial', sans-serif;font-size:18.667px;">Ups</text>
        </g>
    </g>
</svg>
