<?xml version="1.0" encoding="UTF-8" standalone="no"?>
<!DOCTYPE svg PUBLIC "-//W3C//DTD SVG 1.1//EN" "http://www.w3.org/Graphics/SVG/1.1/DTD/svg11.dtd">
<svg width="100%" height="100%" viewBox="0 0 668 628" version="1.1" xmlns="http://www.w3.org/2000/svg" xmlns:xlink="http://www.w3.org/1999/xlink" xml:space="preserve" xmlns:serif="http://www.serif.com/" style="fill-rule:evenodd;clip-rule:evenodd;stroke-linejoin:round;stroke-miterlimit:1.41421;">
    <g transform="matrix(1,0,0,1,-140.625,-164)">
        <g>
            <g transform="matrix(1.13609,0,0,1.12903,-38.926,2.80645)">
                <path d="M444,369.514C444,346.05 425.068,327 401.75,327L317.25,327C293.932,327 275,346.05 275,369.514L275,656.486C275,679.95 293.932,699 317.25,699L401.75,699C425.068,699 444,679.95 444,656.486L444,369.514Z" style="fill:rgb(255,3,86);"/>
            </g>
            <g transform="matrix(1,0,0,1,68.5,-26)">
                <ellipse cx="301" cy="322" rx="105" ry="104" style="fill:rgb(255,219,172);"/>
            </g>
        </g>
        <g transform="matrix(1,0,0,1,-24.5,-1.13687e-13)">
            <g transform="matrix(1.14793,0,0,1.27957,216.82,-102.419)">
                <path d="M444,364.903C444,343.984 425.068,327 401.75,327L317.25,327C293.932,327 275,343.984 275,364.903L275,661.097C275,682.016 293.932,699 317.25,699L401.75,699C425.068,699 444,682.016 444,661.097L444,364.903Z" style="fill:rgb(160,181,255);"/>
            </g>
            <g transform="matrix(1,0,0,1,328.5,-54)">
                <ellipse cx="301" cy="322" rx="105" ry="104" style="fill:rgb(241,194,125);"/>
            </g>
        </g>
    </g>
    <g transform="matrix(0.66775,0,0,1.9375,0,-912.312)">
        <path d="M1000,723C1000,709.754 968.797,699 930.363,699L69.637,699C31.203,699 0,709.754 0,723L0,771C0,784.246 31.203,795 69.637,795L930.363,795C968.797,795 1000,784.246 1000,771L1000,723Z" style="fill:rgb(148,82,0);"/>
    </g>
    <g transform="matrix(1,0,0,1,105,-4.5)">
        <g transform="matrix(0.833333,0,0,1.08553,38.1458,-35.8289)">
            <rect x="132.875" y="454" width="192" height="152" style="fill:rgb(235,235,235);"/>
        </g>
        <g transform="matrix(1,0,0,1,-14.0625,34)">
            <rect x="177" y="562" width="131.875" height="3"/>
        </g>
        <g transform="matrix(1,0,0,1,-14.0625,11)">
            <rect x="177" y="562" width="131.875" height="3"/>
        </g>
        <g transform="matrix(1,0,0,1,-14.0625,-12)">
            <rect x="177" y="562" width="131.875" height="3"/>
        </g>
        <g transform="matrix(1,0,0,1,-14.0625,-55)">
            <rect x="177" y="562" width="131.875" height="3"/>
        </g>
        <g transform="matrix(1,0,0,1,-14.0625,-78)">
            <rect x="177" y="562" width="131.875" height="3"/>
        </g>
        <g transform="matrix(1,0,0,1,-14.0625,-33.5)">
            <rect x="177" y="562" width="131.875" height="3"/>
        </g>
    </g>
</svg>
