<?xml version="1.0" encoding="UTF-8"?>
<svg width="297mm" height="210mm" version="1.1" viewBox="0 0 1052.3622 744.09448" xmlns="http://www.w3.org/2000/svg">
 <defs>
  <filter id="j" x="-.0264" y="-.0264" width="1.0528" height="1.0528" color-interpolation-filters="sRGB">
   <feGaussianBlur stdDeviation="0.71721366"/>
  </filter>
  <filter id="f" x="-.035067" y="-.026213" width="1.0701" height="1.0524" color-interpolation-filters="sRGB">
   <feGaussianBlur stdDeviation="1.1159276"/>
  </filter>
  <filter id="g" x="-.040192" y="-.029316" width="1.0804" height="1.0586" color-interpolation-filters="sRGB">
   <feGaussianBlur stdDeviation="0.91209712"/>
  </filter>
  <filter id="h" x="-.0375" y="-.027201" width="1.075" height="1.0544" color-interpolation-filters="sRGB">
   <feGaussianBlur stdDeviation="0.91209712"/>
  </filter>
  <filter id="i" x="-.010641" y="-.011435" width="1.0213" height="1.0229" color-interpolation-filters="sRGB">
   <feGaussianBlur stdDeviation="0.91209712"/>
  </filter>
 </defs>
 <g transform="translate(0 -308.27)">
  <rect x="369.19" y="402.81" width="647.2" height="354.48" ry="4.9433" fill="#004f00" stroke="#0b0b28" stroke-linecap="round" stroke-linejoin="round" stroke-width="8.4593"/>
  <path d="m384.82 924.46c0 79.479-48.247 70.262-110.9 70.262s-115.97 9.2173-115.97-70.262c0-79.479 50.787-143.91 113.44-143.91s113.44 64.431 113.44 143.91z" color="#000000" color-rendering="auto" fill="#b3b3b3" fill-rule="evenodd" image-rendering="auto" shape-rendering="auto" solid-color="#000000" stroke="#4d4d4d" stroke-width="6.9292" style="isolation:auto;mix-blend-mode:normal"/>
  <path d="m82.5 887.8h358.73c2.4664 0 4.7078 1.9989 4.4521 4.4521l-10.843 104.01c-0.25574 2.4531-1.9856 4.4521-4.4521 4.4521h-389.82c-2.4665 0-5.3743-2.1646-4.4522-4.4521l41.927-104.01c0.92213-2.2875 1.9856-4.4521 4.4522-4.4521z" fill="#a05a2c" stroke="#0b0b28" stroke-linecap="round" stroke-linejoin="round" stroke-width="6.3042"/>
  <path d="m385.42 910.77c0-24.351-21.897-93.646-57.286-117.9-35.389-24.257-78.92-24.257-114.31 0-35.389 24.257-57.286 93.552-57.286 117.9s85.117 92.49 85.117 69.108-40.963-111.83-6.7125-135.31c34.251-23.476 35.404-26.631 69.654-3.1542 34.251 23.476-19.675 79.705-27.947 106.3s108.77-12.6 108.77-36.951z" color="#000000" color-rendering="auto" fill="#333" fill-rule="evenodd" image-rendering="auto" shape-rendering="auto" solid-color="#000000" stroke="#1a1a1a" stroke-width="3.8031" style="block-progression:tb;isolation:auto;mix-blend-mode:normal;text-decoration-color:#000000;text-decoration-line:none;text-decoration-style:solid;text-indent:0;text-transform:none;white-space:normal"/>
  <path transform="matrix(.93992 0 0 .93992 -57.769 -18.767)" d="m736.07 529.96l-191.43 191.43h205.72" fill="none" filter="url(#i)" opacity=".845" stroke="#e6e6e6" stroke-width="9"/>
  <path transform="matrix(.93992 0 0 .93992 -57.769 -18.767)" d="m716.87 704.88c-6.317 2.4635-14.247-2.8886-15.597-2.1382-2.1902 1.0719-4.7065 1.9571-7.5492 2.6562-2.8425 0.7453-6.1744 1.1183-9.9955 1.1183-7.0366 0-13.001-2.3301-17.894-6.99-4.8928-4.6597-7.3393-10.601-7.3393-17.824 0-5.918 1.2581-10.694 3.7745-14.329 2.5627-3.6815 6.1975-6.5706 10.904-8.6677 4.7533-2.0967 10.462-3.5182 17.125-4.2635 6.6638-0.7457 5.8576-0.7743 13.5-1.1471v-2.0271c0-2.9823-0.536-5.452-1.6077-7.4093-1.0252-1.9571-2.5163-3.4948-4.4736-4.6131-1.864-1.0721-4.0949-1.8363-6.7102-2.167-11.224-1.4188-12.499 2.6023-22.945 6.5545h-0.6991v-13.351c12.798-3.0041 15.724-4.9977 29.865-3.9683 4.1006 0.8854 7.6422 2.7234 13.026 7.0151 6.8493 6.4069 6.572 11.21 6.615 18.568zm-12.771-23.125-0.3002-17.836c-4.0076 0.2331-0.7784 0.054-6.2305 0.518-5.4056 0.466-9.6927 1.1415-12.861 2.0271-3.7745 1.0715-6.8266 2.749-9.1567 5.0327-2.33 2.2366-3.4949 5.3355-3.4949 9.2965 0 4.4734 1.3514 7.8518 4.0542 10.135 2.7026 2.2368 6.8266 3.3551 12.372 3.3551 4.6133 0 7.0291-0.2849 10.85-2.0557 3.8211-1.8174 4.7672-10.473 4.7672-10.473z" fill="#e6e6e6" filter="url(#h)" opacity=".845"/>
  <path transform="matrix(.93992 0 0 .93992 -57.769 -18.767)" d="m586.62 654.95c79.789 11.5 48.362 74.671 48.362 74.671" fill="none" filter="url(#g)" opacity=".845" stroke="#e6e6e6" stroke-width="7"/>
  <path d="m334.67 707.43c0 40.094-21.974 87.697-62.068 87.697s-58.937-47.603-58.937-87.697 25.246-72.596 65.34-72.596 55.665 32.502 55.665 72.596z" color="#000000" color-rendering="auto" fill="#e9afaf" fill-rule="evenodd" image-rendering="auto" shape-rendering="auto" solid-color="#000000" stroke="#de8787" stroke-width="3.3558" style="isolation:auto;mix-blend-mode:normal"/>
  <path transform="matrix(.93992 0 0 .93992 -57.769 -18.767)" d="m1003.9 589.22c7.6673 4.7206 17.291-4.5293 20.406-2.7976 2.8655 1.4023 6.1578 2.5606 9.8769 3.4752 3.7191 0.9754 8.0782 1.4632 13.078 1.4632 9.2062 0 17.01-3.0484 23.412-9.1452 6.4017-6.0968 9.6025-13.87 9.6025-23.32 0-7.7429-1.6461-13.992-4.9384-18.748-3.3532-4.8165-8.1088-8.5965-14.266-11.34-6.2187-2.7435-13.687-4.6031-22.406-5.5786-8.7185-0.9754-7.6639-1.0128-17.663-1.5006v-2.6521c0-3.902 0-1.1784 1.3178-12.836l1.9644-12.865-19.248-4.1118s-0.2185-3.1163-1.136 30.636zm16.709-30.256 0.3928-23.335c5.2433 0.3048 1.0183 0.068 8.1516 0.6776 7.0723 0.6097 12.681 1.4937 16.827 2.6521 4.9384 1.4023 8.9318 3.5971 11.98 6.5845 3.0484 2.9265 4.5726 6.9808 4.5726 12.163 0 5.853-1.768 10.273-5.3042 13.261-3.5362 2.9265-8.9318 4.3897-16.187 4.3897-6.0359 0-9.1966-0.3728-14.196-2.6896-4.9994-2.3777-6.2372-13.703-6.2372-13.703z" fill="#e6e6e6" filter="url(#f)" opacity=".866"/>
  <path transform="matrix(.93992 0 0 .93992 -57.769 -18.767)" d="m1052.1 745.13c-3.341 3.341-14.658 5.3467-19.325 6.0858-4.6667 0.73913-16.05 2.3287-20.259 0.18368-4.2099-2.145-9.6146-12.288-11.76-16.498-2.1451-4.2099-7.1744-14.544-6.4352-19.211s8.7158-12.941 12.057-16.282c3.341-3.341 11.616-11.318 16.282-12.057 4.6667-0.73913 15.001 4.2902 19.211 6.4352 4.2099 2.145 14.353 7.5497 16.498 11.76 2.145 4.2099 0.5554 15.593-0.1837 20.259s-2.7448 15.984-6.0858 19.325z" fill="#ececec" filter="url(#j)" opacity=".857" stroke="#e6e6e6" stroke-linecap="round" stroke-linejoin="round" stroke-width="4.2305"/>
  <rect x="457.41" y="729" width="56.881" height="12.84" ry="4.3254" fill="#b3b3b3" stroke="#999" stroke-linecap="round" stroke-linejoin="round" stroke-width="1.8523"/>
  <rect x="364.47" y="743.54" width="655.66" height="16.853" ry="4.3254" fill="#c87137" stroke="#502d16" stroke-linecap="round" stroke-linejoin="round" stroke-width="1.7671"/>
  <rect x="456.64" y="722.05" width="58.584" height="12.84" ry="0" fill="#333" stroke="#1a1a1a" stroke-linecap="round" stroke-linejoin="round" stroke-width="1.8798"/>
  <path d="m212.75 718.75c16.889-14.06 23.691-32.244 38.699-39.999 15.008-7.7547 29.149-12.704 48.412-7.5424 19.262 5.1613 36.28 41.117 36.28 41.117s3.4849-32.699-2.4186-45.955c-5.9035-13.255-14.998-20.926-29.024-29.024-14.026-8.0979-61.035-5.8013-70.141 0-7.0239 4.4746-22.199 21.27-22.199 38.45 0 17.179-0.24329 32.308 0.39237 42.953z" fill="#483737" fill-rule="evenodd" stroke="#241c1c" stroke-width=".84653px"/>
  <circle cx="749.55" cy="543.8" r="75.194" color="#000000" color-rendering="auto" fill="none" image-rendering="auto" opacity=".696" shape-rendering="auto" solid-color="#000000" stroke="#ccc" stroke-width="8.4436" style="isolation:auto;mix-blend-mode:normal"/>
  <g transform="matrix(14.5 0 0 14.5 709.05 601.5)" clip-rule="evenodd" fill="#ccc" fill-rule="evenodd" image-rendering="optimizeQuality" shape-rendering="geometricPrecision">
   <g fill="#ccc">
    <path class="fill:#1F1A17;fill-rule:nonzero" d="m4.9972-1.1484 0.7097-0.029413c-0.3523 1.4614-0.57412 2.4139-0.57412 3.4578 0 0.18267 0 1.594 0.53497 1.594 0.27401 0 0.50888-0.25009 0.50888-0.47191 0-0.065241 0-0.091339-0.091335-0.28706-0.3523-0.90032-0.3523-2.0225-0.3523-2.1138 0-0.07829 0.11765-1.1224 0.59755-2.179h1.1378c0.16963 0 0 0 0.60021-0.41754 0.50003-0.49295-0.24792-0.28706-0.48278-0.28706h-4.2928c-0.3001 0-0.74374 0-1.344 0.63936-0.33925 0.37839-0.75679 1.0699-0.75679 1.1482 0 0.07829 0.065241 0.10439 0.14353 0.10439 0.091335 0 0.10438-0.039147 0.16962-0.11743 0.6785-1.0699 1.357-1.0699 1.6832-1.0699h0.74374c-0.28706 0.97861-0.61326 2.1138-1.6832 4.3972-0.10438 0.20877-0.10438 0.23487-0.10438 0.31316 0 0.27618 0.47017 0.2826 0.5876 0.2826 0.3784 0 0.24748-0.2826 0.40405-0.83062 0.20877-0.66546 0.20877-0.69155 0.33925-1.2135l0.87444-2.743z" fill="#ccc"/>
   </g>
  </g>
  <path d="m258.24 973.91v0.0102a3.8722 4.6885 82.322 0 0 -3.7987 4.409 3.8722 4.6885 82.322 0 0 4.8302 3.242v0.0144l0.33158-0.0449 23.064-3.1093a3.8722 4.6885 82.322 0 0 0.27174 -0.0254 3.8722 4.6885 82.322 0 0 4.1292 -4.4638 3.8722 4.6885 82.322 0 0 -4.9326 -3.2325v-0.0212l-23.564 3.1769-0.33176 0.0449z" color="#000000" color-rendering="auto" fill="#ccc" fill-rule="evenodd" image-rendering="auto" shape-rendering="auto" solid-color="#000000" stroke="#999" stroke-width="1.1378" style="isolation:auto;mix-blend-mode:normal"/>
  <circle cx="140" cy="489.51" r="71.429" color="#000000" color-rendering="auto" fill="#917c6f" fill-rule="evenodd" image-rendering="auto" shape-rendering="auto" solid-color="#000000" stroke="#000" stroke-width="7" style="isolation:auto;mix-blend-mode:normal"/>
  <path d="m136.14 428.81v71.429h42.471" fill="none" stroke="#000" stroke-width="7"/>
 </g>
</svg>
