<?xml version="1.0" encoding="UTF-8"?>
<svg enable-background="new 0 0 217.144 271.901" viewBox="0 0 217.144 271.901" xmlns="http://www.w3.org/2000/svg">
 <path d="m75.832 221.52v-144.91l-58.686 20.285c-1.682 0.581-14.247 3.624-14.247 5.47v145.64l72.933-26.477"/>
 <path d="m75.832 221.52v-144.91l-58.686 20.285c-1.682 0.581-14.247 3.624-14.247 5.47v145.64l72.933-26.477" fill="none" stroke="#000" stroke-linecap="square" stroke-miterlimit="10" stroke-width="5.8"/>
 <path d="m23.352,252.278c.032-29.938.064-59.876.097-89.813 .018-16.606.036-33.212.053-49.818 .003-2.964.006-5.927.01-8.891 0-.268-18.628-1.18-20.611-1.302v90.235 49.181c0,1.167-.86,7.133 0,8.031 2.535,2.648 17.078,1.917 20.451,2.377"/>
 <path d="m23.352,252.278c.032-29.938.064-59.876.097-89.813 .018-16.606.036-33.212.053-49.818 .003-2.964.006-5.927.01-8.891 0-.268-18.628-1.18-20.611-1.302v88.317 50.122 8.974c0,.451 18.605,2.181 20.611,2.412" fill="none" stroke="#000" stroke-linecap="square" stroke-miterlimit="10" stroke-width="5.8"/>
 <path d="m101.2 225.17v-144.91l-60.752 18.35c-1.506 0.455-16.936 4.024-16.936 5.418v148.25l77.688-27.11"/>
 <path d="m101.2 225.17v-144.91l-60.752 18.35c-1.506 0.455-16.936 4.024-16.936 5.418v148.25l77.688-27.11" fill="none" stroke="#000" stroke-linecap="square" stroke-miterlimit="10" stroke-width="5.8"/>
 <path d="m110.71 211.53v-207.06l-66.992 29.891c-2.562 1.143-14.025 4.186-14.025 7.422v207.64l81.017-37.893"/>
 <path d="m110.71 211.53v-207.06l-66.992 29.891c-2.562 1.143-14.025 4.186-14.025 7.422v207.64l81.017-37.893" fill="none" stroke="#000" stroke-linecap="square" stroke-miterlimit="10" stroke-width="5.8"/>
 <path d="m34.927,42.363c25.156-10.363 50.552-21.167 74.833-33.453v10.622c0,5.439.199,6.079-5.077,8.075-10.008,3.786-20.04,7.506-30.109,11.125-9.205,3.309-18.489,6.875-27.917,9.497-6.135,1.707-9.814.714-11.73-5.866"/>
 <path d="m34.927,42.363c25.156-10.363 50.552-21.167 74.833-33.453v10.622c0,5.439.199,6.079-5.077,8.075-10.008,3.786-20.04,7.506-30.109,11.125-9.205,3.309-18.489,6.875-27.917,9.497-6.135,1.707-9.814.714-11.73-5.866" fill="none" stroke="#000" stroke-linecap="square" stroke-miterlimit="10" stroke-width="4.9"/>
 <path d="m41.109,42.363c25.149-10.357 50.563-21.168 74.835-33.453v10.622c0,5.44.199,6.078-5.078,8.075-10.013,3.789-20.071,7.454-30.127,11.125-9.134,3.335-18.354,6.465-27.634,9.365-6.216,1.943-10.05.939-11.996-5.734"/>
 <path d="m41.109,42.363c25.149-10.357 50.563-21.168 74.835-33.453v10.622c0,5.44.199,6.078-5.078,8.075-10.013,3.789-20.071,7.454-30.127,11.125-9.134,3.335-18.354,6.465-27.634,9.365-6.216,1.943-10.05.939-11.996-5.734" fill="none" stroke="#000" stroke-linecap="square" stroke-miterlimit="10" stroke-width="4.9"/>
 <path d="m46.341,42.363c25.288-10.414 50.266-21.781 74.993-33.453v10.622c0,4.443.824,5.88-3.64,7.524-10.119,3.728-20.206,7.543-30.354,11.19-9.518,3.421-19.079,6.731-28.714,9.806-6.597,2.106-10.027,1.01-12.285-5.689"/>
 <path d="m46.341,42.363c25.288-10.414 50.266-21.781 74.993-33.453v10.622c0,4.443.824,5.88-3.64,7.524-10.119,3.728-20.206,7.543-30.354,11.19-9.518,3.421-19.079,6.731-28.714,9.806-6.597,2.106-10.027,1.01-12.285-5.689" fill="none" stroke="#000" stroke-linecap="square" stroke-miterlimit="10" stroke-width="4.9"/>
 <path d="m51.574,43.314c24.983-11.025 50.675-21.003 74.993-33.453v10.622c0,5.35.159,6.093-5.078,8.075-10.363,3.921-20.772,7.713-31.199,11.46-8.91,3.202-17.895,6.344-26.984,9.003-6.093,1.783-9.786.73-11.732-5.707"/>
 <path d="m51.574,43.314c24.983-11.025 50.675-21.003 74.993-33.453v10.622c0,5.35.159,6.093-5.078,8.075-10.055,3.804-20.15,7.49-30.267,11.125-9.1,3.27-18.267,6.323-27.495,9.207-5.754,1.798-10.549,1.36-11.995-5.576" fill="none" stroke="#000" stroke-linecap="square" stroke-miterlimit="10" stroke-width="4.9"/>
 <path d="m52.525 255.61v-211.71c0-1.507-20.019-2.116-22.832-2.331v209.96c0 1.752 19.962 3.639 22.832 4.078"/>
 <path d="m52.525 255.61v-211.71c0-1.507-20.019-2.116-22.832-2.331v209.96c0 1.752 19.962 3.639 22.832 4.078" fill="none" stroke="#000" stroke-linecap="square" stroke-miterlimit="10" stroke-width="5.8"/>
 <path d="m138.78 216.77c0.053-68.969 0.105-137.94 0.158-206.9l-68.202 26.405c-1.795 0.695-18.206 5.571-18.206 7.426v211.92l44.092-19.74 29.146-13.049c3.99-1.786 9.888-3.7 13.012-6.055"/>
 <path d="m138.78 216.77c0.053-68.969 0.105-137.94 0.158-206.9l-68.202 26.405c-1.795 0.695-18.206 5.571-18.206 7.426v211.92l86.408-38.686" fill="none" stroke="#000" stroke-linecap="square" stroke-miterlimit="10" stroke-width="5.8"/>
 <path d="m133.38 219.78v-183.28l-66.651 29.75c-5.707 2.547-7.232 1.736-7.232 7.6v180.81l73.883-34.881"/>
 <path d="m133.38 219.78v-183.28l-66.651 29.75c-5.707 2.547-7.232 1.736-7.232 7.6v180.81l73.883-34.881" fill="none" stroke="#000" stroke-linecap="square" stroke-miterlimit="10" stroke-width="5.8"/>
 <path d="m64.733,71.218c22.768-9.66 45.317-19.771 67.7-30.283v9.831c0,4.388.686,5.58-2.695,7.927-7.558,5.248-20.015,7.393-28.712,10.444-8.352,2.931-16.807,5.952-25.354,8.264-5.952,1.611-9.002-.279-10.939-6.183"/>
 <path d="m64.733,71.218c22.768-9.66 45.317-19.771 67.7-30.283v9.831c0,4.388.686,5.58-2.695,7.927-7.192,4.994-18.985,7.031-27.265,9.936-8.701,3.053-17.469,5.952-26.296,8.619-5.636,1.704-9.902.431-11.286-6.03" fill="none" stroke="#000" stroke-linecap="square" stroke-miterlimit="10" stroke-width="4.9"/>
 <path d="m70.916,71.218c22.769-9.657 45.32-19.766 67.7-30.283v9.831c0,4.388.686,5.58-2.695,7.927-7.246,5.031-19.088,7.012-27.423,9.936-8.657,3.038-17.354,5.965-26.137,8.619-6.238,1.886-9.355.174-11.445-6.03"/>
 <path d="m70.916,71.218c22.769-9.657 45.32-19.766 67.7-30.283v9.831c0,4.388.686,5.58-2.695,7.927-7.246,5.031-19.088,7.012-27.423,9.936-8.657,3.038-17.354,5.965-26.137,8.619-6.238,1.886-9.355.174-11.445-6.03" fill="none" stroke="#000" stroke-linecap="square" stroke-miterlimit="10" stroke-width="4.9"/>
 <path d="m76.149,71.218c22.798-9.672 45.495-19.64 67.858-30.283v9.831c0,4.541.692,5.561-2.854,7.927-7.762,5.18-19.897,7.35-28.712,10.444-8.474,2.974-17.187,6.395-25.938,8.438-5.666,1.323-8.389-.913-10.354-6.357"/>
 <path d="m76.149,71.218c22.798-9.672 45.495-19.64 67.858-30.283v9.831c0,4.541.692,5.561-2.854,7.927-7.762,5.18-19.897,7.35-28.712,10.444-8.295,2.911-16.705,5.969-25.194,8.264-5.521,1.493-9.455-.063-10.94-6.183" fill="none" stroke="#000" stroke-linecap="square" stroke-miterlimit="10" stroke-width="4.9"/>
 <path d="m81.539,72.17c22.527-9.558 46.262-18.614 67.7-30.441v9.83c0,4.531.749,5.756-2.854,8.086-7.864,5.086-19.885,7.167-28.712,10.419-8.247,3.039-16.691,5.896-25.194,8.13-5.632,1.48-9.227-.016-10.94-6.024"/>
 <path d="m81.539,72.17c22.527-9.558 46.262-18.614 67.7-30.441v9.83c0,4.531.749,5.756-2.854,8.086-7.864,5.086-19.885,7.167-28.712,10.419-8.247,3.039-16.691,5.896-25.194,8.13-5.632,1.48-9.227-.016-10.94-6.024" fill="none" stroke="#000" stroke-linecap="square" stroke-miterlimit="10" stroke-width="4.9"/>
 <path d="m82.332,260.682c.031-36.919.063-73.838.094-110.756 .018-21.678.037-43.354.055-65.032 .003-4.162.007-8.324.011-12.486 0-.751-20.551-1.798-22.989-1.983v110.897 64.274 11.648c-.002.756 21.25,3.387 22.829,3.438"/>
 <path d="m82.332 260.68c0.031-36.919 0.063-73.838 0.094-110.76 0.018-21.678 0.037-43.354 0.055-65.032 3e-3 -4.162 7e-3 -8.324 0.011-12.486 0-0.751-20.551-1.798-22.989-1.983v186.69c0 1.026 20.502 3.351 22.989 3.728" fill="none" stroke="#000" stroke-linecap="square" stroke-miterlimit="10" stroke-width="5.8"/>
 <path d="m161.45 225.01c0.053-61.094 0.105-122.19 0.158-183.28l-68.419 26.326c-4.15 1.597-10.695 1.797-10.695 6.684v186.1l40.442-18.235c11.977-5.4 28.239-10.132 38.514-17.596"/>
 <path d="m161.45 225.01c0.053-61.094 0.105-122.19 0.158-183.28l-68.419 26.326c-4.15 1.597-10.695 1.797-10.695 6.684v186.1l79.114-35.673" fill="none" stroke="#000" stroke-linecap="square" stroke-miterlimit="10" stroke-width="5.8"/>
 <path d="m172.7 227.54v-169.01c-22.895 8.263-45.789 16.525-68.683 24.788-2.445 0.882-15.665 3.754-15.665 6.693v169.4l43.091-16.199c13.407-5.04 28.707-9.061 41.257-15.668"/>
 <path d="m172.7 227.54v-169.01c-22.895 8.263-45.789 16.525-68.683 24.788-2.445 0.882-15.665 3.754-15.665 6.693v169.4l84.348-31.709" fill="none" stroke="#000" stroke-linecap="square" stroke-miterlimit="10" stroke-width="5.8"/>
 <path d="m93.112,90.085c25.976-8.655 54.163-16.576 78.798-28.539 0,2.452.204,5.007 0,7.452-.323,3.87.559,4.042-3.655,5.446-10.629,3.544-21.371,6.715-32.076,10.021-9.358,2.889-18.706,5.799-28.151,8.393-5.647,1.551-12.553,4.351-14.916-2.773"/>
 <path d="m93.112,90.085c25.976-8.655 54.163-16.576 78.798-28.539 0,2.452.204,5.007 0,7.452-.323,3.87.559,4.042-3.655,5.446-10.066,3.356-20.237,6.365-30.376,9.496-9.354,2.889-18.689,5.854-28.131,8.446-6.055,1.663-13.689,5.337-16.636-2.142" fill="none" stroke="#000" stroke-linecap="square" stroke-miterlimit="10" stroke-width="4.9"/>
 <path d="m98.662,90.085c25.976-8.654 54.162-16.576 78.798-28.539 0,2.452.204,5.007 0,7.452-.323,3.869.559,4.042-3.654,5.446-10.63,3.543-21.372,6.716-32.077,10.021-9.358,2.889-18.705,5.8-28.151,8.393-5.647,1.551-12.555,4.351-14.916-2.773"/>
 <path d="m98.662,90.085c25.976-8.654 54.162-16.576 78.798-28.539 0,2.452.204,5.007 0,7.452-.323,3.869.559,4.042-3.654,5.446-10.067,3.356-20.237,6.366-30.376,9.496-9.354,2.888-18.689,5.854-28.132,8.446-6.054,1.663-13.69,5.337-16.636-2.142" fill="none" stroke="#000" stroke-linecap="square" stroke-miterlimit="10" stroke-width="4.9"/>
 <path d="m103.418,90.085c26.011-8.667 54.088-16.646 78.798-28.539 0,2.452.204,5.007 0,7.452-.323,3.87.559,4.042-3.655,5.446-10.629,3.544-21.371,6.715-32.076,10.021-9.358,2.889-18.706,5.8-28.151,8.393-5.647,1.551-12.553,4.351-14.916-2.773"/>
 <path d="m103.418,90.085c26.011-8.667 54.088-16.646 78.798-28.539 0,2.452.204,5.007 0,7.452-.323,3.87.559,4.042-3.655,5.446-10.066,3.356-20.237,6.365-30.376,9.496-9.354,2.889-18.688,5.854-28.131,8.446-6.056,1.663-13.689,5.337-16.636-2.142" fill="none" stroke="#000" stroke-linecap="square" stroke-miterlimit="10" stroke-width="4.9"/>
 <path d="m108.174,90.72c26.418-8.804 53.02-17.999 78.799-28.539 0,2.452.204,5.007 0,7.451-.323,3.869.559,4.042-3.655,5.447-10.63,3.542-21.372,6.714-32.077,10.021-9.881,3.052-19.757,6.088-29.73,8.826-5.413,1.486-11.065,3.2-13.337-3.206"/>
 <path d="m108.174,90.72c26.418-8.804 53.02-17.999 78.799-28.539 0,2.452.204,5.007 0,7.451-.323,3.869.559,4.042-3.655,5.447-10.63,3.542-21.372,6.714-32.077,10.021-9.357,2.89-18.705,5.799-28.15,8.392-5.849,1.605-12.059,4.195-14.916-2.615" fill="none" stroke="#000" stroke-linecap="square" stroke-miterlimit="10" stroke-width="4.9"/>
 <path d="m108.97 263.7v-172.56c0-0.726-18.38-1.391-20.611-1.528v171.29c0 0.922 18.348 2.52 20.611 2.798"/>
 <path d="m108.97 263.7v-172.56c0-0.726-18.38-1.391-20.611-1.528v171.29c0 0.922 18.348 2.52 20.611 2.798" fill="none" stroke="#000" stroke-linecap="square" stroke-miterlimit="10" stroke-width="5.8"/>
 <path d="m198.07 231.35v-169.17l-69.23 22.296c-1.675 0.54-19.873 5.144-19.873 6.66v172.56l89.103-32.345"/>
 <path d="m198.07 231.35v-169.17l-69.23 22.296c-1.675 0.54-19.873 5.144-19.873 6.66v172.56l89.103-32.345" fill="none" stroke="#000" stroke-linecap="square" stroke-miterlimit="10" stroke-width="5.8"/>
 <path d="m188.08 236.9v-144.91l-58.685 20.412c-1.685 0.585-14.247 3.649-14.247 5.501v145.64l72.932-26.637"/>
 <path d="m188.08 236.9v-144.91l-58.685 20.412c-1.685 0.585-14.247 3.649-14.247 5.501v145.64l72.932-26.637" fill="none" stroke="#000" stroke-linecap="square" stroke-miterlimit="10" stroke-width="5.8"/>
 <path d="m130.21 118.47c22.487-7.255 45.504-14.37 67.382-23.307 0 3.484 1.462 11.303-1.996 12.319-8.749 2.572-17.524 5.035-26.304 7.499-8.378 2.351-16.732 4.846-25.209 6.817-5.606 1.304-11.443 3.329-13.873-3.328"/>
 <path d="m130.21 118.47c22.487-7.255 45.504-14.37 67.382-23.307 0 3.484 1.462 11.303-1.996 12.319-8.749 2.572-17.524 5.035-26.304 7.499-8.378 2.351-16.732 4.846-25.209 6.817-5.606 1.304-11.443 3.329-13.873-3.328" fill="none" stroke="#000" stroke-linecap="square" stroke-miterlimit="10" stroke-width="4.9"/>
 <path d="m134.97 119.1c22.476-7.252 45.519-14.371 67.383-23.307 0 3.553 1.478 11.053-1.996 12.279-8.555 3.017-17.569 5.088-26.305 7.54-8.495 2.385-34.725 14.687-39.082 3.488"/>
 <path d="m134.97 119.1c22.476-7.252 45.519-14.371 67.383-23.307 0 3.553 1.478 11.053-1.996 12.279-8.555 3.017-17.569 5.088-26.305 7.54-8.495 2.385-34.725 14.687-39.082 3.488" fill="none" stroke="#000" stroke-linecap="square" stroke-miterlimit="10" stroke-width="4.9"/>
 <path d="m135.76 267.82v-148.68c0-0.246-18.63-1.038-20.611-1.145v147.26c0 0.477 18.6 2.324 20.611 2.571"/>
 <path d="m135.76 267.82v-148.68c0-0.246-18.63-1.038-20.611-1.145v147.26c0 0.477 18.6 2.324 20.611 2.571" fill="none" stroke="#000" stroke-linecap="square" stroke-miterlimit="10" stroke-width="5.8"/>
 <path d="m213.45 240.55v-144.76l-60.752 18.226c-1.505 0.452-16.937 3.995-16.937 5.385v148.41l39.769-13.878c12.232-4.269 26.544-7.489 37.92-13.391"/>
 <path d="m213.45 240.55v-144.76l-60.752 18.226c-1.505 0.452-16.937 3.995-16.937 5.385v148.41l77.688-27.111" fill="none" stroke="#000" stroke-linecap="square" stroke-miterlimit="10" stroke-width="5.8"/>
 <path d="m75.832 221.52v-144.91l-58.686 20.285c-1.682 0.581-14.247 3.624-14.247 5.47v145.64l72.933-26.477" fill="#fff"/>
 <path d="m75.832 221.52v-144.91l-58.686 20.285c-1.682 0.581-14.247 3.624-14.247 5.47v145.64l72.933-26.477" fill="none" stroke="#fff" stroke-linecap="square" stroke-miterlimit="10" stroke-width="3.5"/>
 <path d="m23.352,252.278c.032-29.938.064-59.876.097-89.813 .018-16.606.036-33.212.053-49.818 .003-2.964.006-5.927.01-8.891 0-.268-18.628-1.18-20.611-1.302v90.235 49.181c0,1.167-.86,7.133 0,8.031 2.535,2.648 17.078,1.917 20.451,2.377" fill="#fff"/>
 <path d="m23.352,252.278c.032-29.938.064-59.876.097-89.813 .018-16.606.036-33.212.053-49.818 .003-2.964.006-5.927.01-8.891 0-.268-18.628-1.18-20.611-1.302v88.317 50.122 8.974c0,.451 18.605,2.181 20.611,2.412" fill="none" stroke="#fff" stroke-linecap="square" stroke-miterlimit="10" stroke-width="3.5"/>
 <path d="m101.2 225.17v-144.91l-60.752 18.35c-1.506 0.455-16.936 4.024-16.936 5.418v148.25l77.688-27.11" fill="#fff"/>
 <path d="m101.2 225.17v-144.91l-60.752 18.35c-1.506 0.455-16.936 4.024-16.936 5.418v148.25l77.688-27.11" fill="none" stroke="#fff" stroke-linecap="square" stroke-miterlimit="10" stroke-width="3.5"/>
 <path d="m110.71 211.53v-207.06l-66.992 29.891c-2.562 1.143-14.025 4.186-14.025 7.422v207.64l81.017-37.893" fill="#fff"/>
 <path d="m110.71 211.53v-207.06l-66.992 29.891c-2.562 1.143-14.025 4.186-14.025 7.422v207.64l81.017-37.893" fill="none" stroke="#fff" stroke-linecap="square" stroke-miterlimit="10" stroke-width="3.5"/>
 <path d="m34.927,42.363c25.156-10.363 50.552-21.167 74.833-33.453v10.622c0,5.439.199,6.079-5.077,8.075-10.008,3.786-20.04,7.506-30.109,11.125-9.205,3.309-18.489,6.875-27.917,9.497-6.135,1.707-9.814.714-11.73-5.866" fill="#fff"/>
 <path d="m34.927,42.363c25.156-10.363 50.552-21.167 74.833-33.453v10.622c0,5.439.199,6.079-5.077,8.075-10.008,3.786-20.04,7.506-30.109,11.125-9.205,3.309-18.489,6.875-27.917,9.497-6.135,1.707-9.814.714-11.73-5.866" fill="none" stroke="#fff" stroke-linecap="square" stroke-miterlimit="10" stroke-width="2.6"/>
 <path d="m41.109,42.363c25.149-10.357 50.563-21.168 74.835-33.453v10.622c0,5.44.199,6.078-5.078,8.075-10.013,3.789-20.071,7.454-30.127,11.125-9.134,3.335-18.354,6.465-27.634,9.365-6.216,1.943-10.05.939-11.996-5.734" fill="#fff"/>
 <path d="m41.109,42.363c25.149-10.357 50.563-21.168 74.835-33.453v10.622c0,5.44.199,6.078-5.078,8.075-10.013,3.789-20.071,7.454-30.127,11.125-9.134,3.335-18.354,6.465-27.634,9.365-6.216,1.943-10.05.939-11.996-5.734" fill="none" stroke="#fff" stroke-linecap="square" stroke-miterlimit="10" stroke-width="2.6"/>
 <path d="m46.341,42.363c25.288-10.414 50.266-21.781 74.993-33.453v10.622c0,4.443.824,5.88-3.64,7.524-10.119,3.728-20.206,7.543-30.354,11.19-9.518,3.421-19.079,6.731-28.714,9.806-6.597,2.106-10.027,1.01-12.285-5.689" fill="#fff"/>
 <path d="m46.341,42.363c25.288-10.414 50.266-21.781 74.993-33.453v10.622c0,4.443.824,5.88-3.64,7.524-10.119,3.728-20.206,7.543-30.354,11.19-9.518,3.421-19.079,6.731-28.714,9.806-6.597,2.106-10.027,1.01-12.285-5.689" fill="none" stroke="#fff" stroke-linecap="square" stroke-miterlimit="10" stroke-width="2.6"/>
 <path d="m51.574,43.314c24.983-11.025 50.675-21.003 74.993-33.453v10.622c0,5.35.159,6.093-5.078,8.075-10.363,3.921-20.772,7.713-31.199,11.46-8.91,3.202-17.895,6.344-26.984,9.003-6.093,1.783-9.786.73-11.732-5.707" fill="#fff"/>
 <path d="m51.574,43.314c24.983-11.025 50.675-21.003 74.993-33.453v10.622c0,5.35.159,6.093-5.078,8.075-10.055,3.804-20.15,7.49-30.267,11.125-9.1,3.27-18.267,6.323-27.495,9.207-5.754,1.798-10.549,1.36-11.995-5.576" fill="none" stroke="#fff" stroke-linecap="square" stroke-miterlimit="10" stroke-width="2.6"/>
 <path d="m52.525 255.61v-211.71c0-1.507-20.019-2.116-22.832-2.331v209.96c0 1.752 19.962 3.639 22.832 4.078" fill="#fff"/>
 <path d="m52.525 255.61v-211.71c0-1.507-20.019-2.116-22.832-2.331v209.96c0 1.752 19.962 3.639 22.832 4.078" fill="none" stroke="#fff" stroke-linecap="square" stroke-miterlimit="10" stroke-width="3.5"/>
 <path d="m138.78 216.77c0.053-68.969 0.105-137.94 0.158-206.9l-68.202 26.405c-1.795 0.695-18.206 5.571-18.206 7.426v211.92l44.092-19.74 29.146-13.049c3.99-1.786 9.888-3.7 13.012-6.055" fill="#fff"/>
 <path d="m138.78 216.77c0.053-68.969 0.105-137.94 0.158-206.9l-68.202 26.405c-1.795 0.695-18.206 5.571-18.206 7.426v211.92l86.408-38.686" fill="none" stroke="#fff" stroke-linecap="square" stroke-miterlimit="10" stroke-width="3.5"/>
 <path d="m133.38 219.78v-183.28l-66.651 29.75c-5.707 2.547-7.232 1.736-7.232 7.6v180.81l73.883-34.881" fill="#fff"/>
 <path d="m133.38 219.78v-183.28l-66.651 29.75c-5.707 2.547-7.232 1.736-7.232 7.6v180.81l73.883-34.881" fill="none" stroke="#fff" stroke-linecap="square" stroke-miterlimit="10" stroke-width="3.5"/>
 <path d="m64.733,71.218c22.768-9.66 45.317-19.771 67.7-30.283v9.831c0,4.388.686,5.58-2.695,7.927-7.558,5.248-20.015,7.393-28.712,10.444-8.352,2.931-16.807,5.952-25.354,8.264-5.952,1.611-9.002-.279-10.939-6.183" fill="#fff"/>
 <path d="m64.733,71.218c22.768-9.66 45.317-19.771 67.7-30.283v9.831c0,4.388.686,5.58-2.695,7.927-7.192,4.994-18.985,7.031-27.265,9.936-8.701,3.053-17.469,5.952-26.296,8.619-5.636,1.704-9.902.431-11.286-6.03" fill="none" stroke="#fff" stroke-linecap="square" stroke-miterlimit="10" stroke-width="2.6"/>
 <path d="m70.916,71.218c22.769-9.657 45.32-19.766 67.7-30.283v9.831c0,4.388.686,5.58-2.695,7.927-7.246,5.031-19.088,7.012-27.423,9.936-8.657,3.038-17.354,5.965-26.137,8.619-6.238,1.886-9.355.174-11.445-6.03" fill="#fff"/>
 <path d="m70.916,71.218c22.769-9.657 45.32-19.766 67.7-30.283v9.831c0,4.388.686,5.58-2.695,7.927-7.246,5.031-19.088,7.012-27.423,9.936-8.657,3.038-17.354,5.965-26.137,8.619-6.238,1.886-9.355.174-11.445-6.03" fill="none" stroke="#fff" stroke-linecap="square" stroke-miterlimit="10" stroke-width="2.6"/>
 <path d="m76.149,71.218c22.798-9.672 45.495-19.64 67.858-30.283v9.831c0,4.541.692,5.561-2.854,7.927-7.762,5.18-19.897,7.35-28.712,10.444-8.474,2.974-17.187,6.395-25.938,8.438-5.666,1.323-8.389-.913-10.354-6.357" fill="#fff"/>
 <path d="m76.149,71.218c22.798-9.672 45.495-19.64 67.858-30.283v9.831c0,4.541.692,5.561-2.854,7.927-7.762,5.18-19.897,7.35-28.712,10.444-8.295,2.911-16.705,5.969-25.194,8.264-5.521,1.493-9.455-.063-10.94-6.183" fill="none" stroke="#fff" stroke-linecap="square" stroke-miterlimit="10" stroke-width="2.6"/>
 <path d="m81.539,72.17c22.527-9.558 46.262-18.614 67.7-30.441v9.83c0,4.531.749,5.756-2.854,8.086-7.864,5.086-19.885,7.167-28.712,10.419-8.247,3.039-16.691,5.896-25.194,8.13-5.632,1.48-9.227-.016-10.94-6.024" fill="#fff"/>
 <path d="m81.539,72.17c22.527-9.558 46.262-18.614 67.7-30.441v9.83c0,4.531.749,5.756-2.854,8.086-7.864,5.086-19.885,7.167-28.712,10.419-8.247,3.039-16.691,5.896-25.194,8.13-5.632,1.48-9.227-.016-10.94-6.024" fill="none" stroke="#fff" stroke-linecap="square" stroke-miterlimit="10" stroke-width="2.6"/>
 <path d="m82.332,260.682c.031-36.919.063-73.838.094-110.756 .018-21.678.037-43.354.055-65.032 .003-4.162.007-8.324.011-12.486 0-.751-20.551-1.798-22.989-1.983v110.897 64.274 11.648c-.002.756 21.25,3.387 22.829,3.438" fill="#fff"/>
 <path d="m82.332 260.68c0.031-36.919 0.063-73.838 0.094-110.76 0.018-21.678 0.037-43.354 0.055-65.032 3e-3 -4.162 7e-3 -8.324 0.011-12.486 0-0.751-20.551-1.798-22.989-1.983v186.69c0 1.026 20.502 3.351 22.989 3.728" fill="none" stroke="#fff" stroke-linecap="square" stroke-miterlimit="10" stroke-width="3.5"/>
 <path d="m161.45 225.01c0.053-61.094 0.105-122.19 0.158-183.28l-68.419 26.326c-4.15 1.597-10.695 1.797-10.695 6.684v186.1l40.442-18.235c11.977-5.4 28.239-10.132 38.514-17.596" fill="#fff"/>
 <path d="m161.45 225.01c0.053-61.094 0.105-122.19 0.158-183.28l-68.419 26.326c-4.15 1.597-10.695 1.797-10.695 6.684v186.1l79.114-35.673" fill="none" stroke="#fff" stroke-linecap="square" stroke-miterlimit="10" stroke-width="3.5"/>
 <path d="m172.7 227.54v-169.01c-22.895 8.263-45.789 16.525-68.683 24.788-2.445 0.882-15.665 3.754-15.665 6.693v169.4l43.091-16.199c13.407-5.04 28.707-9.061 41.257-15.668" fill="#fff"/>
 <path d="m172.7 227.54v-169.01c-22.895 8.263-45.789 16.525-68.683 24.788-2.445 0.882-15.665 3.754-15.665 6.693v169.4l84.348-31.709" fill="none" stroke="#fff" stroke-linecap="square" stroke-miterlimit="10" stroke-width="3.5"/>
 <path d="m93.112,90.085c25.976-8.655 54.163-16.576 78.798-28.539 0,2.452.204,5.007 0,7.452-.323,3.87.559,4.042-3.655,5.446-10.629,3.544-21.371,6.715-32.076,10.021-9.358,2.889-18.706,5.799-28.151,8.393-5.647,1.551-12.553,4.351-14.916-2.773" fill="#fff"/>
 <path d="m93.112,90.085c25.976-8.655 54.163-16.576 78.798-28.539 0,2.452.204,5.007 0,7.452-.323,3.87.559,4.042-3.655,5.446-10.066,3.356-20.237,6.365-30.376,9.496-9.354,2.889-18.689,5.854-28.131,8.446-6.055,1.663-13.689,5.337-16.636-2.142" fill="none" stroke="#fff" stroke-linecap="square" stroke-miterlimit="10" stroke-width="2.6"/>
 <path d="m98.662,90.085c25.976-8.654 54.162-16.576 78.798-28.539 0,2.452.204,5.007 0,7.452-.323,3.869.559,4.042-3.654,5.446-10.63,3.543-21.372,6.716-32.077,10.021-9.358,2.889-18.705,5.8-28.151,8.393-5.647,1.551-12.555,4.351-14.916-2.773" fill="#fff"/>
 <path d="m98.662,90.085c25.976-8.654 54.162-16.576 78.798-28.539 0,2.452.204,5.007 0,7.452-.323,3.869.559,4.042-3.654,5.446-10.067,3.356-20.237,6.366-30.376,9.496-9.354,2.888-18.689,5.854-28.132,8.446-6.054,1.663-13.69,5.337-16.636-2.142" fill="none" stroke="#fff" stroke-linecap="square" stroke-miterlimit="10" stroke-width="2.6"/>
 <path d="m103.418,90.085c26.011-8.667 54.088-16.646 78.798-28.539 0,2.452.204,5.007 0,7.452-.323,3.87.559,4.042-3.655,5.446-10.629,3.544-21.371,6.715-32.076,10.021-9.358,2.889-18.706,5.8-28.151,8.393-5.647,1.551-12.553,4.351-14.916-2.773" fill="#fff"/>
 <path d="m103.418,90.085c26.011-8.667 54.088-16.646 78.798-28.539 0,2.452.204,5.007 0,7.452-.323,3.87.559,4.042-3.655,5.446-10.066,3.356-20.237,6.365-30.376,9.496-9.354,2.889-18.688,5.854-28.131,8.446-6.056,1.663-13.689,5.337-16.636-2.142" fill="none" stroke="#fff" stroke-linecap="square" stroke-miterlimit="10" stroke-width="2.6"/>
 <path d="m108.174,90.72c26.418-8.804 53.02-17.999 78.799-28.539 0,2.452.204,5.007 0,7.451-.323,3.869.559,4.042-3.655,5.447-10.63,3.542-21.372,6.714-32.077,10.021-9.881,3.052-19.757,6.088-29.73,8.826-5.413,1.486-11.065,3.2-13.337-3.206" fill="#fff"/>
 <path d="m108.174,90.72c26.418-8.804 53.02-17.999 78.799-28.539 0,2.452.204,5.007 0,7.451-.323,3.869.559,4.042-3.655,5.447-10.63,3.542-21.372,6.714-32.077,10.021-9.357,2.89-18.705,5.799-28.15,8.392-5.849,1.605-12.059,4.195-14.916-2.615" fill="none" stroke="#fff" stroke-linecap="square" stroke-miterlimit="10" stroke-width="2.6"/>
 <path d="m108.97 263.7v-172.56c0-0.726-18.38-1.391-20.611-1.528v171.29c0 0.922 18.348 2.52 20.611 2.798" fill="#fff"/>
 <path d="m108.97 263.7v-172.56c0-0.726-18.38-1.391-20.611-1.528v171.29c0 0.922 18.348 2.52 20.611 2.798" fill="none" stroke="#fff" stroke-linecap="square" stroke-miterlimit="10" stroke-width="3.5"/>
 <path d="m198.07 231.35v-169.17l-69.23 22.296c-1.675 0.54-19.873 5.144-19.873 6.66v172.56l89.103-32.345" fill="#fff"/>
 <path d="m198.07 231.35v-169.17l-69.23 22.296c-1.675 0.54-19.873 5.144-19.873 6.66v172.56l89.103-32.345" fill="none" stroke="#fff" stroke-linecap="square" stroke-miterlimit="10" stroke-width="3.5"/>
 <path d="m188.08 236.9v-144.91l-58.685 20.412c-1.685 0.585-14.247 3.649-14.247 5.501v145.64l72.932-26.637" fill="#fff"/>
 <path d="m188.08 236.9v-144.91l-58.685 20.412c-1.685 0.585-14.247 3.649-14.247 5.501v145.64l72.932-26.637" fill="none" stroke="#fff" stroke-linecap="square" stroke-miterlimit="10" stroke-width="3.5"/>
 <path d="m130.21 118.47c22.487-7.255 45.504-14.37 67.382-23.307 0 3.484 1.462 11.303-1.996 12.319-8.749 2.572-17.524 5.035-26.304 7.499-8.378 2.351-16.732 4.846-25.209 6.817-5.606 1.304-11.443 3.329-13.873-3.328" fill="#fff"/>
 <path d="m130.21 118.47c22.487-7.255 45.504-14.37 67.382-23.307 0 3.484 1.462 11.303-1.996 12.319-8.749 2.572-17.524 5.035-26.304 7.499-8.378 2.351-16.732 4.846-25.209 6.817-5.606 1.304-11.443 3.329-13.873-3.328" fill="none" stroke="#fff" stroke-linecap="square" stroke-miterlimit="10" stroke-width="2.6"/>
 <path d="m134.97 119.1c22.476-7.252 45.519-14.371 67.383-23.307 0 3.553 1.478 11.053-1.996 12.279-8.555 3.017-17.569 5.088-26.305 7.54-8.495 2.385-34.725 14.687-39.082 3.488" fill="#fff"/>
 <path d="m134.97 119.1c22.476-7.252 45.519-14.371 67.383-23.307 0 3.553 1.478 11.053-1.996 12.279-8.555 3.017-17.569 5.088-26.305 7.54-8.495 2.385-34.725 14.687-39.082 3.488" fill="none" stroke="#fff" stroke-linecap="square" stroke-miterlimit="10" stroke-width="2.6"/>
 <path d="m135.76 267.82v-148.68c0-0.246-18.63-1.038-20.611-1.145v147.26c0 0.477 18.6 2.324 20.611 2.571" fill="#fff"/>
 <path d="m135.76 267.82v-148.68c0-0.246-18.63-1.038-20.611-1.145v147.26c0 0.477 18.6 2.324 20.611 2.571" fill="none" stroke="#fff" stroke-linecap="square" stroke-miterlimit="10" stroke-width="3.5"/>
 <path d="m213.45 240.55v-144.76l-60.752 18.226c-1.505 0.452-16.937 3.995-16.937 5.385v148.41l39.769-13.878c12.232-4.269 26.544-7.489 37.92-13.391" fill="#fff"/>
 <path d="m213.45 240.55v-144.76l-60.752 18.226c-1.505 0.452-16.937 3.995-16.937 5.385v148.41l77.688-27.111" fill="none" stroke="#fff" stroke-linecap="square" stroke-miterlimit="10" stroke-width="3.5"/>
 <path d="m75.832 221.52v-144.91l-58.686 20.285c-1.682 0.581-14.247 3.624-14.247 5.47v145.64l72.933-26.477" fill="#595959"/>
 <path d="m75.832 221.52v-144.91l-58.686 20.285c-1.682 0.581-14.247 3.624-14.247 5.47v145.64l72.933-26.477" fill="none" stroke="#000" stroke-linecap="square" stroke-miterlimit="10" stroke-width="1.3"/>
 <path d="m7.497 103.09c22.613-7.293 45.438-14.742 67.542-23.465 0 3.479 1.466 11.301-1.997 12.32-8.782 2.583-17.559 5.223-26.383 7.657-8.347 2.303-16.697 4.698-25.131 6.659-6.221 1.448-10.811 3.094-14.031-3.171" fill="#fff"/>
 <path d="m7.497 103.09c22.613-7.293 45.438-14.742 67.542-23.465 0 3.479 1.466 11.301-1.997 12.32-8.221 2.418-16.435 4.913-24.695 7.191-8.362 2.307-16.728 4.778-25.178 6.743-6.032 1.403-12.597 4.37-15.513-2.79" fill="none" stroke="#000" stroke-linecap="square" stroke-miterlimit="10" stroke-width=".4"/>
 <path d="m13.046 103.09c22.613-7.293 45.438-14.742 67.542-23.465 0 3.479 1.466 11.301-1.997 12.32-8.782 2.584-17.559 5.223-26.383 7.657-8.347 2.303-16.697 4.698-25.131 6.659-6.222 1.448-10.81 3.094-14.031-3.171" fill="#fff"/>
 <path d="m13.046 103.09c22.613-7.293 45.438-14.742 67.542-23.465 0 3.479 1.466 11.301-1.997 12.32-8.221 2.418-16.435 4.913-24.695 7.191-8.363 2.307-16.728 4.778-25.178 6.743-6.031 1.402-12.598 4.37-15.513-2.79" fill="none" stroke="#000" stroke-linecap="square" stroke-miterlimit="10" stroke-width=".4"/>
 <path d="m17.802 103.09c22.613-7.293 45.438-14.742 67.542-23.465 0 3.479 1.466 11.301-1.997 12.32-8.782 2.584-17.559 5.223-26.383 7.657-8.347 2.303-16.697 4.698-25.131 6.659-6.222 1.448-10.81 3.094-14.031-3.171" fill="#fff"/>
 <path d="m17.802 103.09c22.613-7.293 45.438-14.742 67.542-23.465 0 3.479 1.466 11.301-1.997 12.32-8.221 2.418-16.435 4.913-24.695 7.191-8.362 2.307-16.728 4.778-25.178 6.743-6.031 1.402-12.598 4.37-15.513-2.79" fill="none" stroke="#000" stroke-linecap="square" stroke-miterlimit="10" stroke-width=".4"/>
 <path d="m22.559 103.56c22.705-6.592 45.549-14.627 67.542-23.306 0 3.479 1.468 11.301-1.997 12.319-8.783 2.582-17.559 5.223-26.383 7.657-8.347 2.303-16.697 4.698-25.131 6.659-5.979 1.391-11.151 3.297-14.031-3.329" fill="#fff"/>
 <path d="m22.559 103.56c22.705-6.592 45.549-14.627 67.542-23.306 0 3.479 1.468 11.301-1.997 12.319-8.222 2.417-16.435 4.913-24.695 7.191-8.362 2.308-16.728 4.778-25.178 6.743-6.032 1.403-12.598 4.37-15.513-2.789" fill="none" stroke="#000" stroke-linecap="square" stroke-miterlimit="10" stroke-width=".4"/>
 <path d="m23.352,252.278c.032-29.938.064-59.876.097-89.813 .018-16.606.036-33.212.053-49.818 .003-2.964.006-5.927.01-8.891 0-.268-18.628-1.18-20.611-1.302v90.235 49.181c0,1.167-.86,7.133 0,8.031 2.535,2.648 17.078,1.917 20.451,2.377" fill="#595959"/>
 <path d="m23.352,252.278c.032-29.938.064-59.876.097-89.813 .018-16.606.036-33.212.053-49.818 .003-2.964.006-5.927.01-8.891 0-.268-18.628-1.18-20.611-1.302v88.317 50.122 8.974c0,.451 18.605,2.181 20.611,2.412" fill="none" stroke="#000" stroke-linecap="square" stroke-miterlimit="10" stroke-width="1.3"/>
 <path d="m101.2 225.17v-144.91l-60.752 18.35c-1.506 0.455-16.936 4.024-16.936 5.418v148.25l77.688-27.11" fill="#595959"/>
 <path d="m101.2 225.17v-144.91l-60.752 18.35c-1.506 0.455-16.936 4.024-16.936 5.418v148.25l77.688-27.11" fill="none" stroke="#000" stroke-linecap="square" stroke-miterlimit="10" stroke-width="1.3"/>
 <path d="m22.559,125.442c0-3.287 1.887-9.847-1.962-10.138l-16.904-1.278c0,5.037-2.274,9.975 3.309,10.397 4.989.378 10.842,1.364 15.557,1.019"/>
 <path d="m22.559 132.1c1.995-6.287-14.63-4.471-18.866-4.756-1.995 6.288 14.629 4.471 18.866 4.756"/>
 <path d="m110.71 211.53v-207.06l-66.992 29.891c-2.562 1.143-14.025 4.186-14.025 7.422v207.64l81.017-37.893" fill="#fff"/>
 <path d="m110.71 211.53v-207.06l-66.992 29.891c-2.562 1.143-14.025 4.186-14.025 7.422v207.64l81.017-37.893" fill="none" stroke="#000" stroke-linecap="square" stroke-miterlimit="10" stroke-width="1.3"/>
 <path d="m34.927,42.363c25.156-10.363 50.552-21.167 74.833-33.453v10.622c0,5.439.199,6.079-5.077,8.075-10.008,3.786-20.04,7.506-30.109,11.125-9.205,3.309-18.489,6.875-27.917,9.497-6.135,1.707-9.814.714-11.73-5.866" fill="#fff"/>
 <path d="m34.927,42.363c25.156-10.363 50.552-21.167 74.833-33.453v10.622c0,5.439.199,6.079-5.077,8.075-10.008,3.786-20.04,7.506-30.109,11.125-9.205,3.309-18.489,6.875-27.917,9.497-6.135,1.707-9.814.714-11.73-5.866" fill="none" stroke="#000" stroke-linecap="square" stroke-miterlimit="10" stroke-width=".4"/>
 <path d="m41.109,42.363c25.149-10.357 50.563-21.168 74.835-33.453v10.622c0,5.44.199,6.078-5.078,8.075-10.013,3.789-20.071,7.454-30.127,11.125-9.134,3.335-18.354,6.465-27.634,9.365-6.216,1.943-10.05.939-11.996-5.734" fill="#fff"/>
 <path d="m41.109,42.363c25.149-10.357 50.563-21.168 74.835-33.453v10.622c0,5.44.199,6.078-5.078,8.075-10.013,3.789-20.071,7.454-30.127,11.125-9.134,3.335-18.354,6.465-27.634,9.365-6.216,1.943-10.05.939-11.996-5.734" fill="none" stroke="#000" stroke-linecap="square" stroke-miterlimit="10" stroke-width=".4"/>
 <path d="m46.341,42.363c25.288-10.414 50.266-21.781 74.993-33.453v10.622c0,4.443.824,5.88-3.64,7.524-10.119,3.728-20.206,7.543-30.354,11.19-9.518,3.421-19.079,6.731-28.714,9.806-6.597,2.106-10.027,1.01-12.285-5.689" fill="#fff"/>
 <path d="m46.341,42.363c25.288-10.414 50.266-21.781 74.993-33.453v10.622c0,4.443.824,5.88-3.64,7.524-10.119,3.728-20.206,7.543-30.354,11.19-9.518,3.421-19.079,6.731-28.714,9.806-6.597,2.106-10.027,1.01-12.285-5.689" fill="none" stroke="#000" stroke-linecap="square" stroke-miterlimit="10" stroke-width=".4"/>
 <path d="m51.574,43.314c24.983-11.025 50.675-21.003 74.993-33.453v10.622c0,5.35.159,6.093-5.078,8.075-10.363,3.921-20.772,7.713-31.199,11.46-8.91,3.202-17.895,6.344-26.984,9.003-6.093,1.783-9.786.73-11.732-5.707" fill="#fff"/>
 <path d="m51.574,43.314c24.983-11.025 50.675-21.003 74.993-33.453v10.622c0,5.35.159,6.093-5.078,8.075-10.055,3.804-20.15,7.49-30.267,11.125-9.1,3.27-18.267,6.323-27.495,9.207-5.754,1.798-10.549,1.36-11.995-5.576" fill="none" stroke="#000" stroke-linecap="square" stroke-miterlimit="10" stroke-width=".4"/>
 <path d="m52.525 255.61v-211.71c0-1.507-20.019-2.116-22.832-2.331v209.96c0 1.752 19.962 3.639 22.832 4.078" fill="#fff"/>
 <path d="m52.525 255.61v-211.71c0-1.507-20.019-2.116-22.832-2.331v209.96c0 1.752 19.962 3.639 22.832 4.078" fill="none" stroke="#000" stroke-linecap="square" stroke-miterlimit="10" stroke-width="1.3"/>
 <path d="m138.78 216.77c0.053-68.969 0.105-137.94 0.158-206.9l-68.202 26.405c-1.795 0.695-18.206 5.571-18.206 7.426v211.92l44.092-19.74 29.146-13.049c3.99-1.786 9.888-3.7 13.012-6.055" fill="#fff"/>
 <path d="m138.78 216.77c0.053-68.969 0.105-137.94 0.158-206.9l-68.202 26.405c-1.795 0.695-18.206 5.571-18.206 7.426v211.92l86.408-38.686" fill="none" stroke="#000" stroke-linecap="square" stroke-miterlimit="10" stroke-width="1.3"/>
 <path d="m51.574,76.292c.039-3.275 2.084-12.941-1.567-13.356-6.401-.727-12.802-1.455-19.203-2.182 0,3.285-1.931,12.941 1.725,13.356 6.18.703 13.428,1.459 19.045,2.182"/>
 <path d="m51.574,76.292c.039-3.275 2.084-12.941-1.567-13.356-6.401-.727-12.802-1.455-19.203-2.182 0,3.285-1.931,12.941 1.725,13.356 6.401.728 12.802,1.455 19.203,2.182" fill="none" stroke="#000" stroke-linecap="square" stroke-miterlimit="10" stroke-width=".6"/>
 <path d="m30.963 79.78c6.639 1.429 13.61 1.125 20.294 2.378l-20.294-2.378"/>
 <path d="m30.963 79.78c6.639 1.429 13.61 1.125 20.294 2.378" fill="none" stroke="#000" stroke-linecap="square" stroke-miterlimit="10" stroke-width=".7"/>
 <path d="m30.963,82.951c6.778.616 13.531,1.477 20.294,2.22l-20.294-2.22"/>
 <path d="m30.963,82.951c6.778.616 13.531,1.477 20.294,2.22" fill="none" stroke="#000" stroke-linecap="square" stroke-miterlimit="10" stroke-width=".7"/>
 <path d="m30.963 85.964c6.718 1.057 13.553 1.299 20.294 2.219l-20.294-2.219"/>
 <path d="m30.963 85.964c6.718 1.057 13.553 1.299 20.294 2.219" fill="none" stroke="#000" stroke-linecap="square" stroke-miterlimit="10" stroke-width=".7"/>
 <path d="m30.963,238.008c6.777.627 13.53,1.484 20.294,2.221l-20.294-2.221"/>
 <path d="m30.963,238.008c6.777.627 13.53,1.484 20.294,2.221" fill="none" stroke="#000" stroke-linecap="square" stroke-miterlimit="10" stroke-width=".7"/>
 <path d="m30.963 241.02c6.637 1.432 13.609 1.13 20.294 2.378l-20.294-2.378"/>
 <path d="m30.963 241.02c6.637 1.432 13.609 1.13 20.294 2.378" fill="none" stroke="#000" stroke-linecap="square" stroke-miterlimit="10" stroke-width=".7"/>
 <path d="m30.963,244.193c6.778.618 13.53,1.486 20.294,2.22l-20.294-2.22"/>
 <path d="m30.963,244.193c6.778.618 13.53,1.486 20.294,2.22" fill="none" stroke="#000" stroke-linecap="square" stroke-miterlimit="10" stroke-width=".7"/>
 <path d="m133.38 219.78v-183.28l-66.651 29.75c-5.707 2.547-7.232 1.736-7.232 7.6v180.81l73.883-34.881" fill="#b3b3b3"/>
 <path d="m133.38 219.78v-183.28l-66.651 29.75c-5.707 2.547-7.232 1.736-7.232 7.6v180.81l73.883-34.881" fill="none" stroke="#000" stroke-linecap="square" stroke-miterlimit="10" stroke-width="1.3"/>
 <path d="m64.733,71.218c22.768-9.66 45.317-19.771 67.7-30.283v9.831c0,4.388.686,5.58-2.695,7.927-7.558,5.248-20.015,7.393-28.712,10.444-8.352,2.931-16.807,5.952-25.354,8.264-5.952,1.611-9.002-.279-10.939-6.183" fill="#fff"/>
 <path d="m64.733,71.218c22.768-9.66 45.317-19.771 67.7-30.283v9.831c0,4.388.686,5.58-2.695,7.927-7.192,4.994-18.985,7.031-27.265,9.936-8.701,3.053-17.469,5.952-26.296,8.619-5.636,1.704-9.902.431-11.286-6.03" fill="none" stroke="#000" stroke-linecap="square" stroke-miterlimit="10" stroke-width=".4"/>
 <path d="m70.916,71.218c22.769-9.657 45.32-19.766 67.7-30.283v9.831c0,4.388.686,5.58-2.695,7.927-7.246,5.031-19.088,7.012-27.423,9.936-8.657,3.038-17.354,5.965-26.137,8.619-6.238,1.886-9.355.174-11.445-6.03" fill="#fff"/>
 <path d="m70.916,71.218c22.769-9.657 45.32-19.766 67.7-30.283v9.831c0,4.388.686,5.58-2.695,7.927-7.246,5.031-19.088,7.012-27.423,9.936-8.657,3.038-17.354,5.965-26.137,8.619-6.238,1.886-9.355.174-11.445-6.03" fill="none" stroke="#000" stroke-linecap="square" stroke-miterlimit="10" stroke-width=".4"/>
 <path d="m76.149,71.218c22.798-9.672 45.495-19.64 67.858-30.283v9.831c0,4.541.692,5.561-2.854,7.927-7.762,5.18-19.897,7.35-28.712,10.444-8.474,2.974-17.187,6.395-25.938,8.438-5.666,1.323-8.389-.913-10.354-6.357" fill="#fff"/>
 <path d="m76.149,71.218c22.798-9.672 45.495-19.64 67.858-30.283v9.831c0,4.541.692,5.561-2.854,7.927-7.762,5.18-19.897,7.35-28.712,10.444-8.295,2.911-16.705,5.969-25.194,8.264-5.521,1.493-9.455-.063-10.94-6.183" fill="none" stroke="#000" stroke-linecap="square" stroke-miterlimit="10" stroke-width=".4"/>
 <path d="m81.539,72.17c22.527-9.558 46.262-18.614 67.7-30.441v9.83c0,4.531.749,5.756-2.854,8.086-7.864,5.086-19.885,7.167-28.712,10.419-8.247,3.039-16.691,5.896-25.194,8.13-5.632,1.48-9.227-.016-10.94-6.024" fill="#fff"/>
 <path d="m81.539,72.17c22.527-9.558 46.262-18.614 67.7-30.441v9.83c0,4.531.749,5.756-2.854,8.086-7.864,5.086-19.885,7.167-28.712,10.419-8.247,3.039-16.691,5.896-25.194,8.13-5.632,1.48-9.227-.016-10.94-6.024" fill="none" stroke="#000" stroke-linecap="square" stroke-miterlimit="10" stroke-width=".4"/>
 <path d="m82.332,260.682c.031-36.919.063-73.838.094-110.756 .018-21.678.037-43.354.055-65.032 .003-4.162.007-8.324.011-12.486 0-.751-20.551-1.798-22.989-1.983v110.897 64.274 11.648c-.002.756 21.25,3.387 22.829,3.438" fill="#b3b3b3"/>
 <path d="m82.332 260.68c0.031-36.919 0.063-73.838 0.094-110.76 0.018-21.678 0.037-43.354 0.055-65.032 3e-3 -4.162 7e-3 -8.324 0.011-12.486 0-0.751-20.551-1.798-22.989-1.983v186.69c0 1.026 20.502 3.351 22.989 3.728" fill="none" stroke="#000" stroke-linecap="square" stroke-miterlimit="10" stroke-width="1.3"/>
 <path d="m161.45 225.01c0.053-61.094 0.105-122.19 0.158-183.28l-68.419 26.326c-4.15 1.597-10.695 1.797-10.695 6.684v186.1l40.442-18.235c11.977-5.4 28.239-10.132 38.514-17.596" fill="#b3b3b3"/>
 <path d="m161.45 225.01c0.053-61.094 0.105-122.19 0.158-183.28l-68.419 26.326c-4.15 1.597-10.695 1.797-10.695 6.684v186.1l79.114-35.673" fill="none" stroke="#000" stroke-linecap="square" stroke-miterlimit="10" stroke-width="1.3"/>
 <path d="m60.77 219.94c6.532 1.354 13.657 1.686 20.294 2.217" fill="none" stroke="#000" stroke-linecap="square" stroke-miterlimit="10" stroke-width=".7"/>
 <path d="m60.77,223.108c6.778.584 13.538,1.438 20.294,2.217" fill="none" stroke="#000" stroke-linecap="square" stroke-miterlimit="10" stroke-width=".7"/>
 <path d="m60.77 226.12c6.726 1.033 13.555 1.263 20.294 2.221" fill="none" stroke="#000" stroke-linecap="square" stroke-miterlimit="10" stroke-width=".7"/>
 <path d="m81.539 247.36c0-3.285 1.931-12.938-1.725-13.354l-19.203-2.183c0 3.285-1.931 12.938 1.725 13.354l19.203 2.183"/>
 <path d="m172.7 227.54v-169.01c-22.895 8.263-45.789 16.525-68.683 24.788-2.445 0.882-15.665 3.754-15.665 6.693v169.4l43.091-16.199c13.407-5.04 28.707-9.061 41.257-15.668" fill="#808080"/>
 <path d="m172.7 227.54v-169.01c-22.895 8.263-45.789 16.525-68.683 24.788-2.445 0.882-15.665 3.754-15.665 6.693v169.4l84.348-31.709" fill="none" stroke="#000" stroke-linecap="square" stroke-miterlimit="10" stroke-width="1.3"/>
 <path d="m93.112,90.085c25.976-8.655 54.163-16.576 78.798-28.539 0,2.452.204,5.007 0,7.452-.323,3.87.559,4.042-3.655,5.446-10.629,3.544-21.371,6.715-32.076,10.021-9.358,2.889-18.706,5.799-28.151,8.393-5.647,1.551-12.553,4.351-14.916-2.773" fill="#fff"/>
 <path d="m93.112,90.085c25.976-8.655 54.163-16.576 78.798-28.539 0,2.452.204,5.007 0,7.452-.323,3.87.559,4.042-3.655,5.446-10.066,3.356-20.237,6.365-30.376,9.496-9.354,2.889-18.689,5.854-28.131,8.446-6.055,1.663-13.689,5.337-16.636-2.142" fill="none" stroke="#000" stroke-linecap="square" stroke-miterlimit="10" stroke-width=".4"/>
 <path d="m98.662,90.085c25.976-8.654 54.162-16.576 78.798-28.539 0,2.452.204,5.007 0,7.452-.323,3.869.559,4.042-3.654,5.446-10.63,3.543-21.372,6.716-32.077,10.021-9.358,2.889-18.705,5.8-28.151,8.393-5.647,1.551-12.555,4.351-14.916-2.773" fill="#fff"/>
 <path d="m98.662,90.085c25.976-8.654 54.162-16.576 78.798-28.539 0,2.452.204,5.007 0,7.452-.323,3.869.559,4.042-3.654,5.446-10.067,3.356-20.237,6.366-30.376,9.496-9.354,2.888-18.689,5.854-28.132,8.446-6.054,1.663-13.69,5.337-16.636-2.142" fill="none" stroke="#000" stroke-linecap="square" stroke-miterlimit="10" stroke-width=".4"/>
 <path d="m103.418,90.085c26.011-8.667 54.088-16.646 78.798-28.539 0,2.452.204,5.007 0,7.452-.323,3.87.559,4.042-3.655,5.446-10.629,3.544-21.371,6.715-32.076,10.021-9.358,2.889-18.706,5.8-28.151,8.393-5.647,1.551-12.553,4.351-14.916-2.773" fill="#fff"/>
 <path d="m103.418,90.085c26.011-8.667 54.088-16.646 78.798-28.539 0,2.452.204,5.007 0,7.452-.323,3.87.559,4.042-3.655,5.446-10.066,3.356-20.237,6.365-30.376,9.496-9.354,2.889-18.688,5.854-28.131,8.446-6.056,1.663-13.689,5.337-16.636-2.142" fill="none" stroke="#000" stroke-linecap="square" stroke-miterlimit="10" stroke-width=".4"/>
 <path d="m108.174,90.72c26.418-8.804 53.02-17.999 78.799-28.539 0,2.452.204,5.007 0,7.451-.323,3.869.559,4.042-3.655,5.447-10.63,3.542-21.372,6.714-32.077,10.021-9.881,3.052-19.757,6.088-29.73,8.826-5.413,1.486-11.065,3.2-13.337-3.206" fill="#fff"/>
 <path d="m108.174,90.72c26.418-8.804 53.02-17.999 78.799-28.539 0,2.452.204,5.007 0,7.451-.323,3.869.559,4.042-3.655,5.447-10.63,3.542-21.372,6.714-32.077,10.021-9.357,2.89-18.705,5.799-28.15,8.392-5.849,1.605-12.059,4.195-14.916-2.615" fill="none" stroke="#000" stroke-linecap="square" stroke-miterlimit="10" stroke-width=".4"/>
 <path d="m108.97 263.7v-172.56c0-0.726-18.38-1.391-20.611-1.528v171.29c0 0.922 18.348 2.52 20.611 2.798" fill="#808080"/>
 <path d="m108.97 263.7v-172.56c0-0.726-18.38-1.391-20.611-1.528v171.29c0 0.922 18.348 2.52 20.611 2.798" fill="none" stroke="#000" stroke-linecap="square" stroke-miterlimit="10" stroke-width="1.3"/>
 <path d="m198.07 231.35v-169.17l-69.23 22.296c-1.675 0.54-19.873 5.144-19.873 6.66v172.56l89.103-32.345" fill="#808080"/>
 <path d="m198.07 231.35v-169.17l-69.23 22.296c-1.675 0.54-19.873 5.144-19.873 6.66v172.56l89.103-32.345" fill="none" stroke="#000" stroke-linecap="square" stroke-miterlimit="10" stroke-width="1.3"/>
 <path d="m108.016,246.097c.052-3.304 2.076-10.02-1.82-10.279l-17.047-1.138c0,5.065-2.286,9.995 3.337,10.37 4.989.333 11.1.7 15.53,1.047"/>
 <path d="m108.02 252.6c2.185-6.007-14.753-4.448-18.867-4.757-2.03 6.364 15.347 5.128 18.867 4.757"/>
 <path d="m188.08 236.9v-144.91l-58.685 20.412c-1.685 0.585-14.247 3.649-14.247 5.501v145.64l72.932-26.637" fill="#e6e6e6"/>
 <path d="m188.08 236.9v-144.91l-58.685 20.412c-1.685 0.585-14.247 3.649-14.247 5.501v145.64l72.932-26.637" fill="none" stroke="#000" stroke-linecap="square" stroke-miterlimit="10" stroke-width="1.3"/>
 <path d="m119.91 118.47c22.488-7.255 45.502-14.373 67.383-23.307 0 3.485 1.462 11.303-1.997 12.319-8.749 2.572-17.523 5.035-26.305 7.499-8.377 2.351-16.731 4.846-25.208 6.817-5.607 1.304-11.443 3.329-13.873-3.328" fill="#fff"/>
 <path d="m119.91 118.47c22.488-7.255 45.502-14.373 67.383-23.307 0 3.485 1.462 11.303-1.997 12.319-8.749 2.572-17.523 5.035-26.305 7.499-8.377 2.351-16.731 4.846-25.208 6.817-5.607 1.304-11.443 3.329-13.873-3.328" fill="none" stroke="#000" stroke-linecap="square" stroke-miterlimit="10" stroke-width=".4"/>
 <path d="m125.46 118.47c22.487-7.254 45.505-14.37 67.383-23.307 0 3.484 1.462 11.303-1.996 12.319-8.749 2.572-17.524 5.035-26.305 7.499-8.378 2.351-16.732 4.846-25.209 6.817-5.608 1.305-11.442 3.328-13.873-3.328" fill="#fff"/>
 <path d="m125.46 118.47c22.487-7.254 45.505-14.37 67.383-23.307 0 3.484 1.462 11.303-1.996 12.319-8.749 2.572-17.524 5.035-26.305 7.499-8.378 2.351-16.732 4.846-25.209 6.817-5.608 1.305-11.442 3.328-13.873-3.328" fill="none" stroke="#000" stroke-linecap="square" stroke-miterlimit="10" stroke-width=".4"/>
 <path d="m130.21 118.47c22.487-7.255 45.504-14.37 67.382-23.307 0 3.484 1.462 11.303-1.996 12.319-8.749 2.572-17.524 5.035-26.304 7.499-8.378 2.351-16.732 4.846-25.209 6.817-5.606 1.304-11.443 3.329-13.873-3.328" fill="#fff"/>
 <path d="m130.21 118.47c22.487-7.255 45.504-14.37 67.382-23.307 0 3.484 1.462 11.303-1.996 12.319-8.749 2.572-17.524 5.035-26.304 7.499-8.378 2.351-16.732 4.846-25.209 6.817-5.606 1.304-11.443 3.329-13.873-3.328" fill="none" stroke="#000" stroke-linecap="square" stroke-miterlimit="10" stroke-width=".4"/>
 <path d="m134.97 119.1c22.476-7.252 45.519-14.371 67.383-23.307 0 3.553 1.478 11.053-1.996 12.279-8.555 3.017-17.569 5.088-26.305 7.54-8.495 2.385-34.725 14.687-39.082 3.488" fill="#fff"/>
 <path d="m134.97 119.1c22.476-7.252 45.519-14.371 67.383-23.307 0 3.553 1.478 11.053-1.996 12.279-8.555 3.017-17.569 5.088-26.305 7.54-8.495 2.385-34.725 14.687-39.082 3.488" fill="none" stroke="#000" stroke-linecap="square" stroke-miterlimit="10" stroke-width=".4"/>
 <path d="m135.76 267.82v-148.68c0-0.246-18.63-1.038-20.611-1.145v147.26c0 0.477 18.6 2.324 20.611 2.571" fill="#e6e6e6"/>
 <path d="m135.76 267.82v-148.68c0-0.246-18.63-1.038-20.611-1.145v147.26c0 0.477 18.6 2.324 20.611 2.571" fill="none" stroke="#000" stroke-linecap="square" stroke-miterlimit="10" stroke-width="1.3"/>
 <path d="m213.45 240.55v-144.76l-60.752 18.226c-1.505 0.452-16.937 3.995-16.937 5.385v148.41l39.769-13.878c12.232-4.269 26.544-7.489 37.92-13.391" fill="#e6e6e6"/>
 <path d="m213.45 240.55v-144.76l-60.752 18.226c-1.505 0.452-16.937 3.995-16.937 5.385v148.41l77.688-27.111" fill="none" stroke="#000" stroke-linecap="square" stroke-miterlimit="10" stroke-width="1.3"/>
 <path d="m134.812,237.851c.051-3.303 2.075-10.02-1.821-10.279l-17.047-1.135c0,5.065-2.285,9.995 3.337,10.37 4.991.332 11.096.698 15.531,1.044"/>
 <path d="m134.81 222.79c2.275-6.267-14.649-4.475-18.868-4.756-2.008 6.339 15.204 4.47 18.868 4.756"/>
 <path d="m134.81 215.5c2.183-6.007-14.754-4.447-18.868-4.756-2.032 6.369 15.34 5.124 18.868 4.756"/>
</svg>
